<?xml version="1.0" encoding="UTF-8" standalone="no"?><svg xmlns="http://www.w3.org/2000/svg" xmlns:xlink="http://www.w3.org/1999/xlink" contentStyleType="text/css" height="777px" preserveAspectRatio="none" style="width:662px;height:777px;background:#FFFFFF;" version="1.1" viewBox="0 0 662 777" width="662px" zoomAndPan="magnify"><defs/><g><ellipse cx="397.5" cy="16" fill="#222222" rx="10" ry="10" style="stroke:none;stroke-width:1.0;"/><g id="Stoped"><rect fill="#F1F1F1" height="101.4844" rx="12.5" ry="12.5" style="stroke:#181818;stroke-width:0.5;" width="166" x="314.5" y="87"/><line style="stroke:#181818;stroke-width:0.5;" x1="314.5" x2="480.5" y1="113.2969" y2="113.2969"/><text fill="#000000" font-family="sans-serif" font-size="14" lengthAdjust="spacing" textLength="50" x="372.5" y="104.9951">Stoped</text><text fill="#000000" font-family="sans-serif" font-size="14" lengthAdjust="spacing" textLength="69" x="319.5" y="131.292">data input</text><text fill="#000000" font-family="sans-serif" font-size="14" lengthAdjust="spacing" textLength="135" x="319.5" y="147.5889">disable button Start</text><text fill="#000000" font-family="sans-serif" font-size="14" lengthAdjust="spacing" textLength="135" x="319.5" y="163.8857">disable button Stop</text><text fill="#000000" font-family="sans-serif" font-size="14" lengthAdjust="spacing" textLength="146" x="319.5" y="180.1826">disable button Pause</text></g><g id="Calibrated"><rect fill="#F1F1F1" height="52.5938" rx="12.5" ry="12.5" style="stroke:#181818;stroke-width:0.5;" width="153" x="7" y="265"/><line style="stroke:#181818;stroke-width:0.5;" x1="7" x2="160" y1="291.2969" y2="291.2969"/><text fill="#000000" font-family="sans-serif" font-size="14" lengthAdjust="spacing" textLength="69" x="49" y="282.9951">Calibrated</text><text fill="#000000" font-family="sans-serif" font-size="14" lengthAdjust="spacing" textLength="133" x="12" y="309.292">enable button Start</text></g><g id="HeadCommands"><rect fill="#F1F1F1" height="52.5938" rx="12.5" ry="12.5" style="stroke:#181818;stroke-width:0.5;" width="223" x="195" y="265"/><line style="stroke:#181818;stroke-width:0.5;" x1="195" x2="418" y1="291.2969" y2="291.2969"/><text fill="#000000" font-family="sans-serif" font-size="14" lengthAdjust="spacing" textLength="115" x="249" y="282.9951">HeadCommands</text><text fill="#000000" font-family="sans-serif" font-size="14" lengthAdjust="spacing" textLength="203" x="200" y="309.292">open modal Head commands</text></g><g id="Running"><rect fill="#F1F1F1" height="101.4844" rx="12.5" ry="12.5" style="stroke:#181818;stroke-width:0.5;" width="204" x="238.5" y="395"/><line style="stroke:#181818;stroke-width:0.5;" x1="238.5" x2="442.5" y1="421.2969" y2="421.2969"/><text fill="#000000" font-family="sans-serif" font-size="14" lengthAdjust="spacing" textLength="58" x="311.5" y="412.9951">Running</text><text fill="#000000" font-family="sans-serif" font-size="14" lengthAdjust="spacing" textLength="158" x="243.5" y="439.292">run measurement loop</text><text fill="#000000" font-family="sans-serif" font-size="14" lengthAdjust="spacing" textLength="184" x="243.5" y="455.5889">update measurement data</text><text fill="#000000" font-family="sans-serif" font-size="14" lengthAdjust="spacing" textLength="144" x="243.5" y="471.8857">enable button Pause</text><text fill="#000000" font-family="sans-serif" font-size="14" lengthAdjust="spacing" textLength="133" x="243.5" y="488.1826">enable button Stop</text></g><g id="Paused"><rect fill="#F1F1F1" height="52.5938" rx="12.5" ry="12.5" style="stroke:#181818;stroke-width:0.5;" width="198" x="332.5" y="573"/><line style="stroke:#181818;stroke-width:0.5;" x1="332.5" x2="530.5" y1="599.2969" y2="599.2969"/><text fill="#000000" font-family="sans-serif" font-size="14" lengthAdjust="spacing" textLength="52" x="405.5" y="590.9951">Paused</text><text fill="#000000" font-family="sans-serif" font-size="14" lengthAdjust="spacing" textLength="178" x="337.5" y="617.292">pause measurement loop</text></g><g id="LiveData"><rect fill="#F1F1F1" height="68.8906" rx="12.5" ry="12.5" style="stroke:#181818;stroke-width:0.5;" width="173" x="345" y="703"/><line style="stroke:#181818;stroke-width:0.5;" x1="345" x2="518" y1="729.2969" y2="729.2969"/><text fill="#000000" font-family="sans-serif" font-size="14" lengthAdjust="spacing" textLength="58" x="402.5" y="720.9951">LiveData</text><text fill="#000000" font-family="sans-serif" font-size="14" lengthAdjust="spacing" textLength="148" x="350" y="747.292">open modal Live Data</text><text fill="#000000" font-family="sans-serif" font-size="14" lengthAdjust="spacing" textLength="153" x="350" y="763.5889">update Live Data Plots</text></g><!--MD5=[ef6fcc3bb193b6a2cbeea82ccdf736f9]
link *start to Stoped--><g id="link_*start_Stoped"><path d="M397.5,26.38 C397.5,38.5 397.5,60.58 397.5,81.81 " fill="none" id="*start-to-Stoped" style="stroke:#181818;stroke-width:1.0;"/><polygon fill="#181818" points="397.5,86.89,401.5,77.89,397.5,81.89,393.5,77.89,397.5,86.89" style="stroke:#181818;stroke-width:1.0;"/></g><!--MD5=[bf8f63e1d4ecd92d35faa321789b5b48]
link Stoped to Calibrated--><g id="link_Stoped_Calibrated"><path d="M314.18,178.83 C259.62,205.25 189.7,239.09 141.21,262.56 " fill="none" id="Stoped-to-Calibrated" style="stroke:#181818;stroke-width:1.0;"/><polygon fill="#181818" points="136.59,264.8,146.4332,264.4659,141.0875,262.6155,142.938,257.2698,136.59,264.8" style="stroke:#181818;stroke-width:1.0;"/><text fill="#000000" font-family="sans-serif" font-size="13" lengthAdjust="spacing" textLength="67" x="232.5" y="231.0669">"Calibrate"</text></g><!--MD5=[c8fdb9b8a1daacdf01e0cc83e602de48]
link Stoped to HeadCommands--><g id="link_Stoped_HeadCommands"><path d="M367.7,188.27 C353.44,212.1 336.83,239.84 324.51,260.41 " fill="none" id="Stoped-to-HeadCommands" style="stroke:#181818;stroke-width:1.0;"/><polygon fill="#181818" points="321.8,264.95,329.8521,259.2787,324.3662,260.6588,322.9861,255.1728,321.8,264.95" style="stroke:#181818;stroke-width:1.0;"/><text fill="#000000" font-family="sans-serif" font-size="13" lengthAdjust="spacing" textLength="44" x="350.5" y="231.0669">"Head"</text></g><!--MD5=[43cbea18b448de3804fb331a249c188a]
link Calibrated to Running--><g id="link_Calibrated_Running"><path d="M126.81,318.11 C161.04,338.36 209.95,367.28 252.34,392.36 " fill="none" id="Calibrated-to-Running" style="stroke:#181818;stroke-width:1.0;"/><polygon fill="#181818" points="256.68,394.93,250.9576,386.9141,252.3725,392.3912,246.8955,393.8061,256.68,394.93" style="stroke:#181818;stroke-width:1.0;"/><text fill="#000000" font-family="sans-serif" font-size="13" lengthAdjust="spacing" textLength="42" x="205.5" y="361.0669">"Start"</text></g><!--MD5=[4ead78a200b3c47734444cdc7268760a]
link Running to Paused--><g id="link_Running_Paused"><path d="M373.89,496.13 C380.23,505.93 386.68,516.22 392.5,526 C400.57,539.57 408.93,554.92 415.84,568 " fill="none" id="Running-to-Paused" style="stroke:#181818;stroke-width:1.0;"/><polygon fill="#181818" points="418.31,572.7,417.6619,562.8725,415.983,568.2745,410.581,566.5956,418.31,572.7" style="stroke:#181818;stroke-width:1.0;"/><text fill="#000000" font-family="sans-serif" font-size="13" lengthAdjust="spacing" textLength="49" x="402.5" y="539.0669">"Pause"</text></g><!--MD5=[0b6f5eecfd6b7d9789c0c0117b0581f3]
link Paused to Running--><g id="link_Paused_Running"><path d="M363.88,572.87 C351.75,565.14 340.69,555.33 333.5,543 C326.27,530.59 324.65,515.71 325.7,501.39 " fill="none" id="Paused-to-Running" style="stroke:#181818;stroke-width:1.0;"/><polygon fill="#181818" points="326.2,496.14,321.3682,504.7222,325.728,501.1177,329.3325,505.4774,326.2,496.14" style="stroke:#181818;stroke-width:1.0;"/><text fill="#000000" font-family="sans-serif" font-size="13" lengthAdjust="spacing" textLength="49" x="334.5" y="539.0669">"Pause"</text></g><!--MD5=[278b1a69f91085c5972da4188d3093e6]
link Running to Stoped--><g id="link_Running_Stoped"><path d="M389.63,394.76 C407.74,373.05 426.11,346.14 435.5,318 C449.2,276.94 437.65,228.89 423.79,192.84 " fill="none" id="Running-to-Stoped" style="stroke:#181818;stroke-width:1.0;"/><polygon fill="#181818" points="421.91,188.06,421.476,197.8993,423.7374,192.7141,428.9226,194.9755,421.91,188.06" style="stroke:#181818;stroke-width:1.0;"/><text fill="#000000" font-family="sans-serif" font-size="13" lengthAdjust="spacing" textLength="40" x="442.5" y="296.0669">"Stop"</text></g><!--MD5=[5fd2ba8d105ca604571343887ebc0a06]
link Stoped to LiveData--><g id="link_Stoped_LiveData"><path d="M480.71,169.46 C530.23,193.85 583.5,233.37 583.5,290.5 C583.5,290.5 583.5,290.5 583.5,600.5 C583.5,644.22 548.14,677.41 511.52,700.05 " fill="none" id="Stoped-to-LiveData" style="stroke:#181818;stroke-width:1.0;"/><polygon fill="#181818" points="507.05,702.76,516.8176,701.4973,511.321,700.1603,512.658,694.6637,507.05,702.76" style="stroke:#181818;stroke-width:1.0;"/><text fill="#000000" font-family="sans-serif" font-size="13" lengthAdjust="spacing" textLength="70" x="584.5" y="450.0669">"Live Data"</text></g><!--MD5=[68e7337f3dc66699e8858c2ec68f5944]
link Running to LiveData--><g id="link_Running_LiveData"><path d="M283.86,496.34 C249.85,532.53 217.59,582.58 242.5,626 C263.77,663.07 302.82,688.9 339.93,706.2 " fill="none" id="Running-to-LiveData" style="stroke:#181818;stroke-width:1.0;"/><polygon fill="#181818" points="344.91,708.48,338.3806,701.1066,340.3606,706.4056,335.0616,708.3856,344.91,708.48" style="stroke:#181818;stroke-width:1.0;"/><text fill="#000000" font-family="sans-serif" font-size="13" lengthAdjust="spacing" textLength="70" x="243.5" y="604.0669">"Live Data"</text></g><!--MD5=[ab510ebac0fae0af7232d3a28400b67c]
link Paused to LiveData--><g id="link_Paused_LiveData"><path d="M431.5,626.08 C431.5,646.25 431.5,674.72 431.5,697.7 " fill="none" id="Paused-to-LiveData" style="stroke:#181818;stroke-width:1.0;"/><polygon fill="#181818" points="431.5,702.81,435.5,693.81,431.5,697.81,427.5,693.81,431.5,702.81" style="stroke:#181818;stroke-width:1.0;"/><text fill="#000000" font-family="sans-serif" font-size="13" lengthAdjust="spacing" textLength="70" x="432.5" y="669.0669">"Live Data"</text></g><!--MD5=[41378eadf327af0c197d08a1d3339771]
@startuml Zustandsdiagramm

[*] - -> Stoped
Stoped - -> Calibrated : "Calibrate"
Stoped - -> HeadCommands : "Head"
Calibrated - -> Running : "Start"
Running - -> Paused : "Pause"
Running - -> Stoped : "Stop"
Paused - -> Running : "Pause"
Stoped - -> LiveData : "Live Data"
Running - -> LiveData : "Live Data"
Paused - -> LiveData : "Live Data"

Stoped : data input
Stoped : disable button Start
Stoped : disable button Stop
Stoped : disable button Pause

Calibrated : enable button Start

HeadCommands : open modal Head commands

Running : run measurement loop
Running : update measurement data
Running : enable button Pause
Running : enable button Stop

Paused : pause measurement loop

LiveData : open modal Live Data
LiveData : update Live Data Plots

@enduml

PlantUML version 1.2022.7(Mon Aug 22 19:01:30 CEST 2022)
(GPL source distribution)
Java Runtime: OpenJDK Runtime Environment
JVM: OpenJDK 64-Bit Server VM
Default Encoding: UTF-8
Language: de
Country: DE
--></g></svg>