<?xml version="1.0" encoding="UTF-8" standalone="no"?><svg xmlns="http://www.w3.org/2000/svg" xmlns:xlink="http://www.w3.org/1999/xlink" contentStyleType="text/css" height="777px" preserveAspectRatio="none" style="width:740px;height:777px;background:#FFFFFF;" version="1.1" viewBox="0 0 740 777" width="740px" zoomAndPan="magnify"><defs/><g><ellipse cx="353" cy="16" fill="#222222" rx="10" ry="10" style="stroke:none;stroke-width:1.0;"/><g id="Stoped"><rect fill="#F1F1F1" height="101.4844" rx="12.5" ry="12.5" style="stroke:#181818;stroke-width:0.5;" width="166" x="270" y="87"/><line style="stroke:#181818;stroke-width:0.5;" x1="270" x2="436" y1="113.2969" y2="113.2969"/><text fill="#000000" font-family="sans-serif" font-size="14" lengthAdjust="spacing" textLength="50" x="328" y="104.9951">Stoped</text><text fill="#000000" font-family="sans-serif" font-size="14" lengthAdjust="spacing" textLength="69" x="275" y="131.292">data input</text><text fill="#000000" font-family="sans-serif" font-size="14" lengthAdjust="spacing" textLength="135" x="275" y="147.5889">disable button Start</text><text fill="#000000" font-family="sans-serif" font-size="14" lengthAdjust="spacing" textLength="135" x="275" y="163.8857">disable button Stop</text><text fill="#000000" font-family="sans-serif" font-size="14" lengthAdjust="spacing" textLength="146" x="275" y="180.1826">disable button Pause</text></g><g id="Calibrated"><rect fill="#F1F1F1" height="52.5938" rx="12.5" ry="12.5" style="stroke:#181818;stroke-width:0.5;" width="153" x="580.5" y="265"/><line style="stroke:#181818;stroke-width:0.5;" x1="580.5" x2="733.5" y1="291.2969" y2="291.2969"/><text fill="#000000" font-family="sans-serif" font-size="14" lengthAdjust="spacing" textLength="69" x="622.5" y="282.9951">Calibrated</text><text fill="#000000" font-family="sans-serif" font-size="14" lengthAdjust="spacing" textLength="133" x="585.5" y="309.292">enable button Start</text></g><g id="HeadCommands"><rect fill="#F1F1F1" height="52.5938" rx="12.5" ry="12.5" style="stroke:#181818;stroke-width:0.5;" width="223" x="59.5" y="265"/><line style="stroke:#181818;stroke-width:0.5;" x1="59.5" x2="282.5" y1="291.2969" y2="291.2969"/><text fill="#000000" font-family="sans-serif" font-size="14" lengthAdjust="spacing" textLength="115" x="113.5" y="282.9951">HeadCommands</text><text fill="#000000" font-family="sans-serif" font-size="14" lengthAdjust="spacing" textLength="203" x="64.5" y="309.292">open modal Head commands</text></g><g id="Running"><rect fill="#F1F1F1" height="101.4844" rx="12.5" ry="12.5" style="stroke:#181818;stroke-width:0.5;" width="204" x="270" y="395"/><line style="stroke:#181818;stroke-width:0.5;" x1="270" x2="474" y1="421.2969" y2="421.2969"/><text fill="#000000" font-family="sans-serif" font-size="14" lengthAdjust="spacing" textLength="58" x="343" y="412.9951">Running</text><text fill="#000000" font-family="sans-serif" font-size="14" lengthAdjust="spacing" textLength="158" x="275" y="439.292">run measurement loop</text><text fill="#000000" font-family="sans-serif" font-size="14" lengthAdjust="spacing" textLength="184" x="275" y="455.5889">update measurement data</text><text fill="#000000" font-family="sans-serif" font-size="14" lengthAdjust="spacing" textLength="144" x="275" y="471.8857">enable button Pause</text><text fill="#000000" font-family="sans-serif" font-size="14" lengthAdjust="spacing" textLength="133" x="275" y="488.1826">enable button Stop</text></g><g id="Paused"><rect fill="#F1F1F1" height="52.5938" rx="12.5" ry="12.5" style="stroke:#181818;stroke-width:0.5;" width="198" x="238" y="573"/><line style="stroke:#181818;stroke-width:0.5;" x1="238" x2="436" y1="599.2969" y2="599.2969"/><text fill="#000000" font-family="sans-serif" font-size="14" lengthAdjust="spacing" textLength="52" x="311" y="590.9951">Paused</text><text fill="#000000" font-family="sans-serif" font-size="14" lengthAdjust="spacing" textLength="178" x="243" y="617.292">pause measurement loop</text></g><g id="LiveData"><rect fill="#F1F1F1" height="68.8906" rx="12.5" ry="12.5" style="stroke:#181818;stroke-width:0.5;" width="173" x="44.5" y="703"/><line style="stroke:#181818;stroke-width:0.5;" x1="44.5" x2="217.5" y1="729.2969" y2="729.2969"/><text fill="#000000" font-family="sans-serif" font-size="14" lengthAdjust="spacing" textLength="58" x="102" y="720.9951">LiveData</text><text fill="#000000" font-family="sans-serif" font-size="14" lengthAdjust="spacing" textLength="148" x="49.5" y="747.292">open modal Live Data</text><text fill="#000000" font-family="sans-serif" font-size="14" lengthAdjust="spacing" textLength="153" x="49.5" y="763.5889">update Live Data Plots</text></g><!--MD5=[ef6fcc3bb193b6a2cbeea82ccdf736f9]
link *start to Stoped--><g id="link_*start_Stoped"><path d="M353,26.38 C353,38.5 353,60.58 353,81.81 " fill="none" id="*start-to-Stoped" style="stroke:#181818;stroke-width:1.0;"/><polygon fill="#181818" points="353,86.89,357,77.89,353,81.89,349,77.89,353,86.89" style="stroke:#181818;stroke-width:1.0;"/></g><!--MD5=[bf8f63e1d4ecd92d35faa321789b5b48]
link Stoped to Calibrated--><g id="link_Stoped_Calibrated"><path d="M436.07,180.03 C488.59,206.29 555.03,239.52 601.28,262.64 " fill="none" id="Stoped-to-Calibrated" style="stroke:#181818;stroke-width:1.0;"/><polygon fill="#181818" points="605.97,264.98,599.7187,257.3694,601.5007,262.7382,596.1319,264.5202,605.97,264.98" style="stroke:#181818;stroke-width:1.0;"/><text fill="#000000" font-family="sans-serif" font-size="13" lengthAdjust="spacing" textLength="67" x="542" y="231.0669">"Calibrate"</text></g><!--MD5=[c8fdb9b8a1daacdf01e0cc83e602de48]
link Stoped to HeadCommands--><g id="link_Stoped_HeadCommands"><path d="M293.66,188.06 C264.51,212.4 230.42,240.88 205.58,261.62 " fill="none" id="Stoped-to-HeadCommands" style="stroke:#181818;stroke-width:1.0;"/><polygon fill="#181818" points="201.68,264.88,211.1498,262.1739,205.5153,261.6721,206.0171,256.0375,201.68,264.88" style="stroke:#181818;stroke-width:1.0;"/><text fill="#000000" font-family="sans-serif" font-size="13" lengthAdjust="spacing" textLength="44" x="258" y="231.0669">"Head"</text></g><!--MD5=[43cbea18b448de3804fb331a249c188a]
link Calibrated to Running--><g id="link_Calibrated_Running"><path d="M608.98,318.11 C570.94,338.4 516.56,367.4 469.48,392.51 " fill="none" id="Calibrated-to-Running" style="stroke:#181818;stroke-width:1.0;"/><polygon fill="#181818" points="464.95,394.93,474.7732,394.2192,469.3606,392.5748,471.0049,387.1622,464.95,394.93" style="stroke:#181818;stroke-width:1.0;"/><text fill="#000000" font-family="sans-serif" font-size="13" lengthAdjust="spacing" textLength="42" x="549" y="361.0669">"Start"</text></g><!--MD5=[4ead78a200b3c47734444cdc7268760a]
link Running to Paused--><g id="link_Running_Paused"><path d="M375.81,496.32 C375.69,511.55 374.24,528.18 370,543 C367.48,551.82 363.19,560.67 358.54,568.64 " fill="none" id="Running-to-Paused" style="stroke:#181818;stroke-width:1.0;"/><polygon fill="#181818" points="355.92,572.96,364.0026,567.3322,358.5093,568.6827,357.1589,563.1894,355.92,572.96" style="stroke:#181818;stroke-width:1.0;"/><text fill="#000000" font-family="sans-serif" font-size="13" lengthAdjust="spacing" textLength="49" x="374" y="539.0669">"Pause"</text></g><!--MD5=[0b6f5eecfd6b7d9789c0c0117b0581f3]
link Paused to Running--><g id="link_Paused_Running"><path d="M318.96,572.74 C311.51,558.92 305.71,541.57 311,526 C313.97,517.24 318.34,508.7 323.4,500.65 " fill="none" id="Paused-to-Running" style="stroke:#181818;stroke-width:1.0;"/><polygon fill="#181818" points="326.27,496.23,318.0171,501.605,323.5496,500.4252,324.7294,505.9576,326.27,496.23" style="stroke:#181818;stroke-width:1.0;"/><text fill="#000000" font-family="sans-serif" font-size="13" lengthAdjust="spacing" textLength="49" x="312" y="539.0669">"Pause"</text></g><!--MD5=[278b1a69f91085c5972da4188d3093e6]
link Running to Stoped--><g id="link_Running_Stoped"><path d="M368.91,394.81 C365.48,339.49 359.94,250.34 356.39,193.1 " fill="none" id="Running-to-Stoped" style="stroke:#181818;stroke-width:1.0;"/><polygon fill="#181818" points="356.07,188,352.6178,197.224,356.3703,192.991,360.6033,196.7435,356.07,188" style="stroke:#181818;stroke-width:1.0;"/><text fill="#000000" font-family="sans-serif" font-size="13" lengthAdjust="spacing" textLength="40" x="365" y="296.0669">"Stop"</text></g><!--MD5=[278b1a69f91085c5972da4188d3093e6]
link Running to Stoped--><g id="link_Running_Stoped"><path d="M396.05,394.62 C410.39,358.62 424.02,308.84 414,265 C408.32,240.15 397.1,214.49 385.82,192.84 " fill="none" id="Running-to-Stoped-1" style="stroke:#181818;stroke-width:1.0;"/><polygon fill="#181818" points="383.41,188.28,384.0829,198.1058,385.7481,192.6996,391.1543,194.3648,383.41,188.28" style="stroke:#181818;stroke-width:1.0;"/><text fill="#000000" font-family="sans-serif" font-size="13" lengthAdjust="spacing" textLength="78" x="418" y="296.0669">"Scan done"</text></g><!--MD5=[5fd2ba8d105ca604571343887ebc0a06]
link Stoped to LiveData--><g id="link_Stoped_LiveData"><path d="M269.88,140.01 C167.23,146.8 6,175.73 6,290.5 C6,290.5 6,290.5 6,600.5 C6,641.78 37.6,675.93 69.03,699.69 " fill="none" id="Stoped-to-LiveData" style="stroke:#181818;stroke-width:1.0;"/><polygon fill="#181818" points="73.26,702.82,68.406,694.2504,69.2412,699.8452,63.6463,700.6805,73.26,702.82" style="stroke:#181818;stroke-width:1.0;"/><text fill="#000000" font-family="sans-serif" font-size="13" lengthAdjust="spacing" textLength="70" x="7" y="450.0669">"Live Data"</text></g><!--MD5=[68e7337f3dc66699e8858c2ec68f5944]
link Running to LiveData--><g id="link_Running_LiveData"><path d="M269.78,479.74 C225.05,499.63 176.4,529.67 148,573 C123.7,610.08 122.63,662.37 125.55,697.75 " fill="none" id="Running-to-LiveData" style="stroke:#181818;stroke-width:1.0;"/><polygon fill="#181818" points="126.01,702.85,129.1957,693.5306,125.5664,697.8697,121.2272,694.2404,126.01,702.85" style="stroke:#181818;stroke-width:1.0;"/><text fill="#000000" font-family="sans-serif" font-size="13" lengthAdjust="spacing" textLength="70" x="149" y="604.0669">"Live Data"</text></g><!--MD5=[ab510ebac0fae0af7232d3a28400b67c]
link Paused to LiveData--><g id="link_Paused_LiveData"><path d="M298.25,626.08 C266.67,646.93 221.67,676.64 186.3,699.99 " fill="none" id="Paused-to-LiveData" style="stroke:#181818;stroke-width:1.0;"/><polygon fill="#181818" points="182.03,702.81,191.7438,701.1844,186.2012,700.053,187.3326,694.5104,182.03,702.81" style="stroke:#181818;stroke-width:1.0;"/><text fill="#000000" font-family="sans-serif" font-size="13" lengthAdjust="spacing" textLength="70" x="254" y="669.0669">"Live Data"</text></g><!--MD5=[dac84e88e10d713d735d6b368bdbd5d0]
@startuml Zustandsdiagramm

[*] - -> Stoped
Stoped - -> Calibrated : "Calibrate"
Stoped - -> HeadCommands : "Head"
Calibrated - -> Running : "Start"
Running - -> Paused : "Pause"
Running - -> Stoped : "Stop"
Running - -> Stoped : "Scan done"
Paused - -> Running : "Pause"
Stoped - -> LiveData : "Live Data"
Running - -> LiveData : "Live Data"
Paused - -> LiveData : "Live Data"

Stoped : data input
Stoped : disable button Start
Stoped : disable button Stop
Stoped : disable button Pause

Calibrated : enable button Start

HeadCommands : open modal Head commands

Running : run measurement loop
Running : update measurement data
Running : enable button Pause
Running : enable button Stop

Paused : pause measurement loop

LiveData : open modal Live Data
LiveData : update Live Data Plots

@enduml

PlantUML version 1.2022.7(Mon Aug 22 19:01:30 CEST 2022)
(GPL source distribution)
Java Runtime: OpenJDK Runtime Environment
JVM: OpenJDK 64-Bit Server VM
Default Encoding: UTF-8
Language: de
Country: DE
--></g></svg>