<?xml version="1.0" encoding="UTF-8" standalone="no"?><svg xmlns="http://www.w3.org/2000/svg" xmlns:xlink="http://www.w3.org/1999/xlink" contentStyleType="text/css" height="648px" preserveAspectRatio="none" style="width:722px;height:648px;background:#FFFFFF;" version="1.1" viewBox="0 0 722 648" width="722px" zoomAndPan="magnify"><defs/><g><ellipse cx="401.5" cy="16" fill="#222222" rx="10" ry="10" style="stroke:none;stroke-width:1.0;"/><g id="Stoped"><rect fill="#F1F1F1" height="101.4844" rx="12.5" ry="12.5" style="stroke:#181818;stroke-width:0.5;" width="166" x="318.5" y="87"/><line style="stroke:#181818;stroke-width:0.5;" x1="318.5" x2="484.5" y1="113.2969" y2="113.2969"/><text fill="#000000" font-family="sans-serif" font-size="14" lengthAdjust="spacing" textLength="50" x="376.5" y="104.9951">Stoped</text><text fill="#000000" font-family="sans-serif" font-size="14" lengthAdjust="spacing" textLength="69" x="323.5" y="131.292">data input</text><text fill="#000000" font-family="sans-serif" font-size="14" lengthAdjust="spacing" textLength="135" x="323.5" y="147.5889">disable button Start</text><text fill="#000000" font-family="sans-serif" font-size="14" lengthAdjust="spacing" textLength="135" x="323.5" y="163.8857">disable button Stop</text><text fill="#000000" font-family="sans-serif" font-size="14" lengthAdjust="spacing" textLength="146" x="323.5" y="180.1826">disable button Pause</text></g><g id="Calibrated"><rect fill="#F1F1F1" height="52.5938" rx="12.5" ry="12.5" style="stroke:#181818;stroke-width:0.5;" width="153" x="7" y="111"/><line style="stroke:#181818;stroke-width:0.5;" x1="7" x2="160" y1="137.2969" y2="137.2969"/><text fill="#000000" font-family="sans-serif" font-size="14" lengthAdjust="spacing" textLength="69" x="49" y="128.9951">Calibrated</text><text fill="#000000" font-family="sans-serif" font-size="14" lengthAdjust="spacing" textLength="133" x="12" y="155.292">enable button Start</text></g><g id="HeadCommands"><rect fill="#F1F1F1" height="52.5938" rx="12.5" ry="12.5" style="stroke:#181818;stroke-width:0.5;" width="223" x="288" y="273"/><line style="stroke:#181818;stroke-width:0.5;" x1="288" x2="511" y1="299.2969" y2="299.2969"/><text fill="#000000" font-family="sans-serif" font-size="14" lengthAdjust="spacing" textLength="115" x="342" y="290.9951">HeadCommands</text><text fill="#000000" font-family="sans-serif" font-size="14" lengthAdjust="spacing" textLength="203" x="293" y="317.292">open modal Head commands</text></g><g id="Running"><rect fill="#F1F1F1" height="101.4844" rx="12.5" ry="12.5" style="stroke:#181818;stroke-width:0.5;" width="204" x="232.5" y="541"/><line style="stroke:#181818;stroke-width:0.5;" x1="232.5" x2="436.5" y1="567.2969" y2="567.2969"/><text fill="#000000" font-family="sans-serif" font-size="14" lengthAdjust="spacing" textLength="58" x="305.5" y="558.9951">Running</text><text fill="#000000" font-family="sans-serif" font-size="14" lengthAdjust="spacing" textLength="158" x="237.5" y="585.292">run measurement loop</text><text fill="#000000" font-family="sans-serif" font-size="14" lengthAdjust="spacing" textLength="184" x="237.5" y="601.5889">update measurement data</text><text fill="#000000" font-family="sans-serif" font-size="14" lengthAdjust="spacing" textLength="144" x="237.5" y="617.8857">enable button Pause</text><text fill="#000000" font-family="sans-serif" font-size="14" lengthAdjust="spacing" textLength="133" x="237.5" y="634.1826">enable button Stop</text></g><g id="Paused"><rect fill="#F1F1F1" height="52.5938" rx="12.5" ry="12.5" style="stroke:#181818;stroke-width:0.5;" width="198" x="326.5" y="411"/><line style="stroke:#181818;stroke-width:0.5;" x1="326.5" x2="524.5" y1="437.2969" y2="437.2969"/><text fill="#000000" font-family="sans-serif" font-size="14" lengthAdjust="spacing" textLength="52" x="399.5" y="428.9951">Paused</text><text fill="#000000" font-family="sans-serif" font-size="14" lengthAdjust="spacing" textLength="178" x="331.5" y="455.292">pause measurement loop</text></g><g id="LiveData"><rect fill="#F1F1F1" height="68.8906" rx="12.5" ry="12.5" style="stroke:#181818;stroke-width:0.5;" width="173" x="80" y="265"/><line style="stroke:#181818;stroke-width:0.5;" x1="80" x2="253" y1="291.2969" y2="291.2969"/><text fill="#000000" font-family="sans-serif" font-size="14" lengthAdjust="spacing" textLength="58" x="137.5" y="282.9951">LiveData</text><text fill="#000000" font-family="sans-serif" font-size="14" lengthAdjust="spacing" textLength="148" x="85" y="309.292">open modal Live Data</text><text fill="#000000" font-family="sans-serif" font-size="14" lengthAdjust="spacing" textLength="153" x="85" y="325.5889">update Live Data Plots</text></g><!--MD5=[ef6fcc3bb193b6a2cbeea82ccdf736f9]
link *start to Stoped--><g id="link_*start_Stoped"><path d="M401.5,26.38 C401.5,38.5 401.5,60.58 401.5,81.81 " fill="none" id="*start-to-Stoped" style="stroke:#181818;stroke-width:1.0;"/><polygon fill="#181818" points="401.5,86.89,405.5,77.89,401.5,81.89,397.5,77.89,401.5,86.89" style="stroke:#181818;stroke-width:1.0;"/></g><!--MD5=[7497983d439835ba8db531cf45deaab9]
reverse link Calibrated to Stoped--><g id="link_Calibrated_Stoped"><path d="M165.16,137.5 C212.17,137.5 271.09,137.5 318.34,137.5 " fill="none" id="Calibrated-backto-Stoped" style="stroke:#181818;stroke-width:1.0;"/><polygon fill="#181818" points="160.07,137.5,169.07,141.5,165.07,137.5,169.07,133.5,160.07,137.5" style="stroke:#181818;stroke-width:1.0;"/><text fill="#000000" font-family="sans-serif" font-size="13" lengthAdjust="spacing" textLength="67" x="205.75" y="130.5669">"Calibrate"</text></g><!--MD5=[c8fdb9b8a1daacdf01e0cc83e602de48]
link Stoped to HeadCommands--><g id="link_Stoped_HeadCommands"><path d="M400.88,188.25 C400.55,214.24 400.17,245.22 399.88,267.71 " fill="none" id="Stoped-to-HeadCommands" style="stroke:#181818;stroke-width:1.0;"/><polygon fill="#181818" points="399.82,272.95,403.9226,263.9963,399.8771,267.9503,395.9231,263.9049,399.82,272.95" style="stroke:#181818;stroke-width:1.0;"/><text fill="#000000" font-family="sans-serif" font-size="13" lengthAdjust="spacing" textLength="44" x="401.5" y="231.0669">"Head"</text></g><!--MD5=[fb602f859cc7969b104889eea3299cdf]
link HeadCommands to Stoped--><g id="link_HeadCommands_Stoped"><path d="M396.03,272.91 C394.63,261.35 393.19,247.51 392.5,235 C391.75,221.38 392.38,206.72 393.59,193.03 " fill="none" id="HeadCommands-to-Stoped" style="stroke:#181818;stroke-width:1.0;"/><polygon fill="#181818" points="394.06,188.03,389.2282,196.6122,393.588,193.0077,397.1925,197.3674,394.06,188.03" style="stroke:#181818;stroke-width:1.0;"/></g><!--MD5=[43cbea18b448de3804fb331a249c188a]
link Calibrated to Running--><g id="link_Calibrated_Running"><path d="M73.64,164.08 C60.47,202.3 41.12,276.03 62.5,334 C95.19,422.64 178.64,493.4 244.56,537.96 " fill="none" id="Calibrated-to-Running" style="stroke:#181818;stroke-width:1.0;"/><polygon fill="#181818" points="248.87,540.86,243.6201,532.527,244.7163,538.0766,239.1667,539.1728,248.87,540.86" style="stroke:#181818;stroke-width:1.0;"/><text fill="#000000" font-family="sans-serif" font-size="13" lengthAdjust="spacing" textLength="42" x="85.5" y="377.0669">"Start"</text></g><!--MD5=[4ead78a200b3c47734444cdc7268760a]
link Running to Paused--><g id="link_Running_Paused"><path d="M323.1,540.91 C321.95,525.04 323.52,507.97 331.5,494 C337.58,483.34 346.6,474.53 356.68,467.3 " fill="none" id="Running-to-Paused" style="stroke:#181818;stroke-width:1.0;"/><polygon fill="#181818" points="361.06,464.3,351.3746,466.0869,356.9352,467.126,355.8962,472.6866,361.06,464.3" style="stroke:#181818;stroke-width:1.0;"/><text fill="#000000" font-family="sans-serif" font-size="13" lengthAdjust="spacing" textLength="49" x="332.5" y="507.0669">"Pause"</text></g><!--MD5=[0b6f5eecfd6b7d9789c0c0117b0581f3]
link Paused to Running--><g id="link_Paused_Running"><path d="M412.31,464.3 C404.99,478.28 395.56,495.77 386.5,511 C381.59,519.25 376.23,527.86 370.87,536.24 " fill="none" id="Paused-to-Running" style="stroke:#181818;stroke-width:1.0;"/><polygon fill="#181818" points="367.89,540.87,376.1215,535.4624,370.5938,536.6641,369.3921,531.1364,367.89,540.87" style="stroke:#181818;stroke-width:1.0;"/><text fill="#000000" font-family="sans-serif" font-size="13" lengthAdjust="spacing" textLength="49" x="396.5" y="507.0669">"Pause"</text></g><!--MD5=[278b1a69f91085c5972da4188d3093e6]
link Running to Stoped--><g id="link_Running_Stoped"><path d="M436.74,546.83 C474.4,526.4 514.62,498.8 542.5,464 C580.63,416.39 576.59,394.19 586.5,334 C591.48,303.74 599.34,292.85 586.5,265 C567.49,223.74 527.34,193.81 489.28,173.45 " fill="none" id="Running-to-Stoped" style="stroke:#181818;stroke-width:1.0;"/><polygon fill="#181818" points="484.65,171.01,490.7544,178.739,489.0755,173.337,494.4775,171.6581,484.65,171.01" style="stroke:#181818;stroke-width:1.0;"/><text fill="#000000" font-family="sans-serif" font-size="13" lengthAdjust="spacing" textLength="40" x="582.5" y="377.0669">"Stop"</text></g><!--MD5=[278b1a69f91085c5972da4188d3093e6]
link Running to Stoped--><g id="link_Running_Stoped"><path d="M436.53,556.23 C467.43,543.94 500.78,528.68 529.5,511 C592.05,472.51 612.47,451.93 631.5,381 C651.01,308.3 642.82,266.8 585.5,218 C557.85,194.46 522.16,176.9 489.58,164.35 " fill="none" id="Running-to-Stoped-1" style="stroke:#181818;stroke-width:1.0;"/><polygon fill="#181818" points="484.8,162.54,491.797,169.4712,489.4752,164.3128,494.6335,161.991,484.8,162.54" style="stroke:#181818;stroke-width:1.0;"/><text fill="#000000" font-family="sans-serif" font-size="13" lengthAdjust="spacing" textLength="78" x="636.5" y="377.0669">"Scan done"</text></g><!--MD5=[d2688813323aea25fd6b3bced2b49fee]
link Paused to Stoped--><g id="link_Paused_Stoped"><path d="M463.5,410.93 C487.09,392.63 515.33,365.68 528.5,334 C540.27,305.68 540.26,293.32 528.5,265 C516.82,236.88 495.52,211.78 473.65,191.49 " fill="none" id="Paused-to-Stoped" style="stroke:#181818;stroke-width:1.0;"/><polygon fill="#181818" points="469.86,188.02,473.8184,197.0384,473.5558,191.3876,479.2066,191.1251,469.86,188.02" style="stroke:#181818;stroke-width:1.0;"/><text fill="#000000" font-family="sans-serif" font-size="13" lengthAdjust="spacing" textLength="40" x="537.5" y="304.0669">"Stop"</text></g><!--MD5=[5fd2ba8d105ca604571343887ebc0a06]
link Stoped to LiveData--><g id="link_Stoped_LiveData"><path d="M318.18,160.4 C282.61,172.88 242.48,191.45 212.5,218 C199.51,229.51 189.3,245.61 181.83,260.39 " fill="none" id="Stoped-to-LiveData" style="stroke:#181818;stroke-width:1.0;"/><polygon fill="#181818" points="179.6,264.92,187.1705,258.6203,181.8132,260.4365,179.9969,255.0791,179.6,264.92" style="stroke:#181818;stroke-width:1.0;"/><text fill="#000000" font-family="sans-serif" font-size="13" lengthAdjust="spacing" textLength="70" x="213.5" y="231.0669">"Live Data"</text></g><!--MD5=[15d5991d9fd5d26ab13471d52d2b1423]
link LiveData to Stoped--><g id="link_LiveData_Stoped"><path d="M237.75,264.87 C254.81,255.89 272.66,245.68 288.5,235 C307.59,222.13 327.1,206.5 344.42,191.6 " fill="none" id="LiveData-to-Stoped" style="stroke:#181818;stroke-width:1.0;"/><polygon fill="#181818" points="348.32,188.24,338.9003,191.1157,344.543,191.5163,344.1424,197.1589,348.32,188.24" style="stroke:#181818;stroke-width:1.0;"/></g><!--MD5=[68e7337f3dc66699e8858c2ec68f5944]
link Running to LiveData--><g id="link_Running_LiveData"><path d="M291.88,540.81 C273.75,518.27 253.22,490.71 237.5,464 C213.56,423.33 192.95,373.09 180.19,339.12 " fill="none" id="Running-to-LiveData" style="stroke:#181818;stroke-width:1.0;"/><polygon fill="#181818" points="178.37,334.23,177.7848,344.0615,180.1256,338.9116,185.2754,341.2525,178.37,334.23" style="stroke:#181818;stroke-width:1.0;"/><text fill="#000000" font-family="sans-serif" font-size="13" lengthAdjust="spacing" textLength="70" x="238.5" y="442.0669">"Live Data"</text></g><!--MD5=[f01a715b5d9a8d6b0a0d046e15cb0be9]
link LiveData to Running--><g id="link_LiveData_Running"><path d="M168.21,334.15 C171.22,368.71 179.53,423.06 202.5,464 C217.91,491.48 241.22,516.66 263.98,537.21 " fill="none" id="LiveData-to-Running" style="stroke:#181818;stroke-width:1.0;"/><polygon fill="#181818" points="267.92,540.72,263.8699,531.7424,264.1901,537.3902,258.5423,537.7103,267.92,540.72" style="stroke:#181818;stroke-width:1.0;"/></g><!--MD5=[ab510ebac0fae0af7232d3a28400b67c]
link Paused to LiveData--><g id="link_Paused_LiveData"><path d="M389.11,410.74 C367.64,396.11 339.64,377.98 313.5,364 C295.19,354.21 275.06,344.73 255.72,336.21 " fill="none" id="Paused-to-LiveData" style="stroke:#181818;stroke-width:1.0;"/><polygon fill="#181818" points="250.83,334.06,257.4531,341.3494,255.4055,336.0761,260.6788,334.0285,250.83,334.06" style="stroke:#181818;stroke-width:1.0;"/><text fill="#000000" font-family="sans-serif" font-size="13" lengthAdjust="spacing" textLength="70" x="342.5" y="377.0669">"Live Data"</text></g><!--MD5=[ebb3ae4de345e4abfca7ecf7c6479c43]
link LiveData to Paused--><g id="link_LiveData_Paused"><path d="M224.12,334.09 C250,348.88 281.06,366.21 309.5,381 C327.58,390.4 347.51,400.15 365.67,408.81 " fill="none" id="LiveData-to-Paused" style="stroke:#181818;stroke-width:1.0;"/><polygon fill="#181818" points="370.25,410.99,363.8348,403.517,365.7331,408.8459,360.4042,410.7441,370.25,410.99" style="stroke:#181818;stroke-width:1.0;"/></g><!--MD5=[2deb1fdf143d5ac01a2a15aa9f8d6e05]
@startuml Zustandsdiagramm

[*] - -> Stoped
Stoped -l-> Calibrated : "Calibrate"
Stoped - -> HeadCommands : "Head"
Calibrated - -> Running : "Start"
Running - -> Paused : "Pause"
Running - -> Stoped : "Stop"
Paused -d-> Stoped : "Stop"
Running - -> Stoped : "Scan done"
Paused - -> Running : "Pause"
Stoped - -> LiveData : "Live Data"
Running - -> LiveData : "Live Data"
Paused - -> LiveData : "Live Data"
LiveData - -> Stoped
LiveData - -> Running
LiveData - -> Paused
HeadCommands - -> Stoped

Stoped : data input
Stoped : disable button Start
Stoped : disable button Stop
Stoped : disable button Pause

Calibrated : enable button Start

HeadCommands : open modal Head commands

Running : run measurement loop
Running : update measurement data
Running : enable button Pause
Running : enable button Stop

Paused : pause measurement loop

LiveData : open modal Live Data
LiveData : update Live Data Plots

@enduml

PlantUML version 1.2022.7(Mon Aug 22 19:01:30 CEST 2022)
(GPL source distribution)
Java Runtime: OpenJDK Runtime Environment
JVM: OpenJDK 64-Bit Server VM
Default Encoding: UTF-8
Language: de
Country: DE
--></g></svg>