<?xml version="1.0" encoding="UTF-8" standalone="no"?><svg xmlns="http://www.w3.org/2000/svg" xmlns:xlink="http://www.w3.org/1999/xlink" contentStyleType="text/css" height="332px" preserveAspectRatio="none" style="width:429px;height:332px;background:#FFFFFF;" version="1.1" viewBox="0 0 429 332" width="429px" zoomAndPan="magnify"><defs/><g><rect fill="#F1F1F1" height="60.8906" rx="5" ry="5" style="stroke:#F1F1F1;stroke-width:1.5;" width="72" x="10" y="143.5"/><text fill="#000000" font-family="sans-serif" font-size="14" font-weight="bold" lengthAdjust="spacing" textLength="40" x="15" y="158.4951">2100</text><text fill="#000000" font-family="sans-serif" font-size="14" lengthAdjust="spacing" textLength="12" x="65" y="158.4951">   </text><line style="stroke:#000000;stroke-width:1.0;" x1="60" x2="60" y1="143.5" y2="163.7969"/><line style="stroke:#000000;stroke-width:1.0;" x1="10" x2="82" y1="163.7969" y2="163.7969"/><text fill="#000000" font-family="sans-serif" font-size="14" font-weight="bold" lengthAdjust="spacing" textLength="40" x="15" y="178.792">2200</text><text fill="#000000" font-family="sans-serif" font-size="14" lengthAdjust="spacing" textLength="12" x="65" y="178.792">   </text><line style="stroke:#000000;stroke-width:1.0;" x1="60" x2="60" y1="163.7969" y2="184.0938"/><line style="stroke:#000000;stroke-width:1.0;" x1="10" x2="82" y1="184.0938" y2="184.0938"/><text fill="#000000" font-family="sans-serif" font-size="14" font-weight="bold" lengthAdjust="spacing" textLength="15" x="15" y="199.0889">...</text><text fill="#000000" font-family="sans-serif" font-size="14" lengthAdjust="spacing" textLength="12" x="65" y="199.0889">   </text><line style="stroke:#000000;stroke-width:1.0;" x1="60" x2="60" y1="184.0938" y2="204.3906"/><rect fill="none" height="60.8906" rx="5" ry="5" style="stroke:#000000;stroke-width:1.5;" width="72" x="10" y="143.5"/><rect fill="#F1F1F1" height="60.8906" rx="5" ry="5" style="stroke:#F1F1F1;stroke-width:1.5;" width="104" x="119" y="37.5"/><text fill="#000000" font-family="sans-serif" font-size="14" font-weight="bold" lengthAdjust="spacing" textLength="52" x="124" y="52.4951">azimut</text><text fill="#000000" font-family="sans-serif" font-size="14" lengthAdjust="spacing" textLength="12" x="206" y="52.4951">   </text><line style="stroke:#000000;stroke-width:1.0;" x1="201" x2="201" y1="37.5" y2="57.7969"/><line style="stroke:#000000;stroke-width:1.0;" x1="119" x2="223" y1="57.7969" y2="57.7969"/><text fill="#000000" font-family="sans-serif" font-size="14" font-weight="bold" lengthAdjust="spacing" textLength="72" x="124" y="72.792">elevation</text><text fill="#000000" font-family="sans-serif" font-size="14" lengthAdjust="spacing" textLength="12" x="206" y="72.792">   </text><line style="stroke:#000000;stroke-width:1.0;" x1="201" x2="201" y1="57.7969" y2="78.0938"/><line style="stroke:#000000;stroke-width:1.0;" x1="119" x2="223" y1="78.0938" y2="78.0938"/><text fill="#000000" font-family="sans-serif" font-size="14" font-weight="bold" lengthAdjust="spacing" textLength="33" x="124" y="93.0889">gain</text><text fill="#000000" font-family="sans-serif" font-size="14" lengthAdjust="spacing" textLength="12" x="206" y="93.0889">   </text><line style="stroke:#000000;stroke-width:1.0;" x1="201" x2="201" y1="78.0938" y2="98.3906"/><rect fill="none" height="60.8906" rx="5" ry="5" style="stroke:#000000;stroke-width:1.5;" width="104" x="119" y="37.5"/><rect fill="#F1F1F1" height="20.2969" rx="5" ry="5" style="stroke:#F1F1F1;stroke-width:1.5;" width="114" x="281.5" y="10"/><text fill="#000000" font-family="sans-serif" font-size="14" lengthAdjust="spacing" textLength="104" x="286.5" y="24.9951">0,5,10,15,20,...</text><rect fill="none" height="20.2969" rx="5" ry="5" style="stroke:#000000;stroke-width:1.5;" width="114" x="281.5" y="10"/><rect fill="#F1F1F1" height="20.2969" rx="5" ry="5" style="stroke:#F1F1F1;stroke-width:1.5;" width="115" x="281" y="48"/><text fill="#000000" font-family="sans-serif" font-size="14" lengthAdjust="spacing" textLength="105" x="286" y="62.9951">-10,-5,0,5,10,...</text><rect fill="none" height="20.2969" rx="5" ry="5" style="stroke:#000000;stroke-width:1.5;" width="115" x="281" y="48"/><rect fill="#F1F1F1" height="20.2969" rx="5" ry="5" style="stroke:#F1F1F1;stroke-width:1.5;" width="157" x="260" y="86"/><text fill="#000000" font-family="sans-serif" font-size="14" lengthAdjust="spacing" textLength="147" x="265" y="100.9951">1.4,3.2,-0.7,0.3,5.2,...</text><rect fill="none" height="20.2969" rx="5" ry="5" style="stroke:#000000;stroke-width:1.5;" width="157" x="260" y="86"/><rect fill="#F1F1F1" height="60.8906" rx="5" ry="5" style="stroke:#F1F1F1;stroke-width:1.5;" width="104" x="119" y="142.5"/><text fill="#000000" font-family="sans-serif" font-size="14" font-weight="bold" lengthAdjust="spacing" textLength="52" x="124" y="157.4951">azimut</text><text fill="#000000" font-family="sans-serif" font-size="14" lengthAdjust="spacing" textLength="12" x="206" y="157.4951">   </text><line style="stroke:#000000;stroke-width:1.0;" x1="201" x2="201" y1="142.5" y2="162.7969"/><line style="stroke:#000000;stroke-width:1.0;" x1="119" x2="223" y1="162.7969" y2="162.7969"/><text fill="#000000" font-family="sans-serif" font-size="14" font-weight="bold" lengthAdjust="spacing" textLength="72" x="124" y="177.792">elevation</text><text fill="#000000" font-family="sans-serif" font-size="14" lengthAdjust="spacing" textLength="12" x="206" y="177.792">   </text><line style="stroke:#000000;stroke-width:1.0;" x1="201" x2="201" y1="162.7969" y2="183.0938"/><line style="stroke:#000000;stroke-width:1.0;" x1="119" x2="223" y1="183.0938" y2="183.0938"/><text fill="#000000" font-family="sans-serif" font-size="14" font-weight="bold" lengthAdjust="spacing" textLength="33" x="124" y="198.0889">gain</text><text fill="#000000" font-family="sans-serif" font-size="14" lengthAdjust="spacing" textLength="12" x="206" y="198.0889">   </text><line style="stroke:#000000;stroke-width:1.0;" x1="201" x2="201" y1="183.0938" y2="203.3906"/><rect fill="none" height="60.8906" rx="5" ry="5" style="stroke:#000000;stroke-width:1.5;" width="104" x="119" y="142.5"/><rect fill="#F1F1F1" height="20.2969" rx="5" ry="5" style="stroke:#F1F1F1;stroke-width:1.5;" width="114" x="281.5" y="124"/><text fill="#000000" font-family="sans-serif" font-size="14" lengthAdjust="spacing" textLength="104" x="286.5" y="138.9951">0,5,10,15,20,...</text><rect fill="none" height="20.2969" rx="5" ry="5" style="stroke:#000000;stroke-width:1.5;" width="114" x="281.5" y="124"/><rect fill="#F1F1F1" height="20.2969" rx="5" ry="5" style="stroke:#F1F1F1;stroke-width:1.5;" width="115" x="281" y="162"/><text fill="#000000" font-family="sans-serif" font-size="14" lengthAdjust="spacing" textLength="105" x="286" y="176.9951">-10,-5,0,5,10,...</text><rect fill="none" height="20.2969" rx="5" ry="5" style="stroke:#000000;stroke-width:1.5;" width="115" x="281" y="162"/><rect fill="#F1F1F1" height="20.2969" rx="5" ry="5" style="stroke:#F1F1F1;stroke-width:1.5;" width="157" x="260" y="200"/><text fill="#000000" font-family="sans-serif" font-size="14" lengthAdjust="spacing" textLength="147" x="265" y="214.9951">3.5,1.9,0.2,-3.6,1.8,...</text><rect fill="none" height="20.2969" rx="5" ry="5" style="stroke:#000000;stroke-width:1.5;" width="157" x="260" y="200"/><rect fill="#F1F1F1" height="60.8906" rx="5" ry="5" style="stroke:#F1F1F1;stroke-width:1.5;" width="104" x="119" y="243.5"/><text fill="#000000" font-family="sans-serif" font-size="14" font-weight="bold" lengthAdjust="spacing" textLength="52" x="124" y="258.4951">azimut</text><text fill="#000000" font-family="sans-serif" font-size="14" lengthAdjust="spacing" textLength="12" x="206" y="258.4951">   </text><line style="stroke:#000000;stroke-width:1.0;" x1="201" x2="201" y1="243.5" y2="263.7969"/><line style="stroke:#000000;stroke-width:1.0;" x1="119" x2="223" y1="263.7969" y2="263.7969"/><text fill="#000000" font-family="sans-serif" font-size="14" font-weight="bold" lengthAdjust="spacing" textLength="72" x="124" y="278.792">elevation</text><text fill="#000000" font-family="sans-serif" font-size="14" lengthAdjust="spacing" textLength="12" x="206" y="278.792">   </text><line style="stroke:#000000;stroke-width:1.0;" x1="201" x2="201" y1="263.7969" y2="284.0938"/><line style="stroke:#000000;stroke-width:1.0;" x1="119" x2="223" y1="284.0938" y2="284.0938"/><text fill="#000000" font-family="sans-serif" font-size="14" font-weight="bold" lengthAdjust="spacing" textLength="33" x="124" y="299.0889">gain</text><text fill="#000000" font-family="sans-serif" font-size="14" lengthAdjust="spacing" textLength="12" x="206" y="299.0889">   </text><line style="stroke:#000000;stroke-width:1.0;" x1="201" x2="201" y1="284.0938" y2="304.3906"/><rect fill="none" height="60.8906" rx="5" ry="5" style="stroke:#000000;stroke-width:1.5;" width="104" x="119" y="243.5"/><rect fill="#F1F1F1" height="15" rx="5" ry="5" style="stroke:#F1F1F1;stroke-width:1.5;" width="30" x="326.5" y="238"/><rect fill="none" height="15" rx="5" ry="5" style="stroke:#000000;stroke-width:1.5;" width="30" x="326.5" y="238"/><rect fill="#F1F1F1" height="15" rx="5" ry="5" style="stroke:#F1F1F1;stroke-width:1.5;" width="30" x="326.5" y="272"/><rect fill="none" height="15" rx="5" ry="5" style="stroke:#000000;stroke-width:1.5;" width="30" x="326.5" y="272"/><rect fill="#F1F1F1" height="15" rx="5" ry="5" style="stroke:#F1F1F1;stroke-width:1.5;" width="30" x="326.5" y="306"/><rect fill="none" height="15" rx="5" ry="5" style="stroke:#000000;stroke-width:1.5;" width="30" x="326.5" y="306"/><path d="M211,47 L224,47 C225.7578,47 258.8789,39.1221 288.9679,31.877 " fill="none" style="stroke:#000000;stroke-width:1.0;stroke-dasharray:3.0,3.0;"/><path d="M289.6971,34.9024 L291.2369,31.33 L288.2386,28.8516 L296.5314,30.0538 L289.6971,34.9024 " fill="#000000" style="stroke:#000000;stroke-width:1.0;"/><ellipse cx="211" cy="47" fill="#000000" rx="3" ry="3" style="stroke:#000000;stroke-width:1.0;"/><path d="M211,67 L224,67 C240.0377,67 257.3053,66.1038 273.4296,64.8771 " fill="none" style="stroke:#000000;stroke-width:1.0;stroke-dasharray:3.0,3.0;"/><path d="M273.6801,68.0024 L275.7736,64.6892 L273.1791,61.7518 L281.2429,64.2508 L273.6801,68.0024 " fill="#000000" style="stroke:#000000;stroke-width:1.0;"/><ellipse cx="211" cy="67" fill="#000000" rx="3" ry="3" style="stroke:#000000;stroke-width:1.0;"/><path d="M211,88 L224,88 C233.3149,88 243.0474,88.2691 252.7311,88.7085 " fill="none" style="stroke:#000000;stroke-width:1.0;stroke-dasharray:3.0,3.0;"/><path d="M252.5763,91.8072 L255.0551,88.8246 L252.8859,85.6098 L260.4779,89.0956 L252.5763,91.8072 " fill="#000000" style="stroke:#000000;stroke-width:1.0;"/><ellipse cx="211" cy="88" fill="#000000" rx="3" ry="3" style="stroke:#000000;stroke-width:1.0;"/><path d="M70,153 L83,153 C97.8383,153 122.6483,127.5334 142.068,104.4792 " fill="none" style="stroke:#000000;stroke-width:1.0;stroke-dasharray:3.0,3.0;"/><path d="M144.3849,106.4039 L143.5115,102.7416 L139.7511,102.5545 L146.8798,98.687 L144.3849,106.4039 " fill="#000000" style="stroke:#000000;stroke-width:1.0;"/><ellipse cx="70" cy="153" fill="#000000" rx="3" ry="3" style="stroke:#000000;stroke-width:1.0;"/><path d="M211,152 L224,152 C245.054,152 268.0304,148.9675 287.8042,145.3919 " fill="none" style="stroke:#000000;stroke-width:1.0;stroke-dasharray:3.0,3.0;"/><path d="M288.3609,148.3563 L290.0274,144.9744 L287.2474,142.4275 L295.2151,144.0001 L288.3609,148.3563 " fill="#000000" style="stroke:#000000;stroke-width:1.0;"/><ellipse cx="211" cy="152" fill="#000000" rx="3" ry="3" style="stroke:#000000;stroke-width:1.0;"/><path d="M211,172 L224,172 C240.073,172 257.4207,172 273.6169,172 " fill="none" style="stroke:#000000;stroke-width:1.0;stroke-dasharray:3.0,3.0;"/><path d="M273.6169,175.1391 L275.9712,172 L273.6169,168.8609 L281.4646,172 L273.6169,175.1391 " fill="#000000" style="stroke:#000000;stroke-width:1.0;"/><ellipse cx="211" cy="172" fill="#000000" rx="3" ry="3" style="stroke:#000000;stroke-width:1.0;"/><path d="M211,193 L224,193 C243.8737,193 265.4853,195.5587 284.495,198.6907 " fill="none" style="stroke:#000000;stroke-width:1.0;stroke-dasharray:3.0,3.0;"/><path d="M283.9859,201.6597 L286.7218,199.0725 L285.0042,195.7216 L291.9176,199.9636 L283.9859,201.6597 " fill="#000000" style="stroke:#000000;stroke-width:1.0;"/><ellipse cx="211" cy="193" fill="#000000" rx="3" ry="3" style="stroke:#000000;stroke-width:1.0;"/><path d="M70,173 L83,173 C92.2297,173 102.007,173 111.5522,173 " fill="none" style="stroke:#000000;stroke-width:1.0;stroke-dasharray:3.0,3.0;"/><path d="M111.5522,176.0361 L113.8293,173 L111.5522,169.9639 L119.1425,173 L111.5522,176.0361 " fill="#000000" style="stroke:#000000;stroke-width:1.0;"/><ellipse cx="70" cy="173" fill="#000000" rx="3" ry="3" style="stroke:#000000;stroke-width:1.0;"/><path d="M211,253 L224,253 C257.5543,253 296.5597,249.9415 319.1487,247.8678 " fill="none" style="stroke:#000000;stroke-width:1.0;stroke-dasharray:3.0,3.0;"/><path d="M319.4334,250.8834 L321.4104,247.6542 L318.8639,244.8522 L326.6877,247.1559 L319.4334,250.8834 " fill="#000000" style="stroke:#000000;stroke-width:1.0;"/><ellipse cx="211" cy="253" fill="#000000" rx="3" ry="3" style="stroke:#000000;stroke-width:1.0;"/><path d="M211,273 L224,273 C257.5543,273 296.5597,276.0585 319.1487,278.1322 " fill="none" style="stroke:#000000;stroke-width:1.0;stroke-dasharray:3.0,3.0;"/><path d="M318.8639,281.1478 L321.4104,278.3458 L319.4334,275.1166 L326.6877,278.8441 L318.8639,281.1478 " fill="#000000" style="stroke:#000000;stroke-width:1.0;"/><ellipse cx="211" cy="273" fill="#000000" rx="3" ry="3" style="stroke:#000000;stroke-width:1.0;"/><path d="M211,294 L224,294 C242.2886,294 292.2077,304.1121 319.5281,309.9557 " fill="none" style="stroke:#000000;stroke-width:1.0;stroke-dasharray:3.0,3.0;"/><path d="M318.8914,312.9068 L321.7415,310.4333 L320.1649,307.0046 L326.9059,311.5476 L318.8914,312.9068 " fill="#000000" style="stroke:#000000;stroke-width:1.0;"/><ellipse cx="211" cy="294" fill="#000000" rx="3" ry="3" style="stroke:#000000;stroke-width:1.0;"/><path d="M70,194 L83,194 C96.9821,194 120.7673,216.5315 140.0127,237.6795 " fill="none" style="stroke:#000000;stroke-width:1.0;stroke-dasharray:3.0,3.0;"/><path d="M137.765,239.6956 L141.5248,239.3652 L142.2604,235.6633 L145.0531,243.2987 L137.765,239.6956 " fill="#000000" style="stroke:#000000;stroke-width:1.0;"/><ellipse cx="70" cy="194" fill="#000000" rx="3" ry="3" style="stroke:#000000;stroke-width:1.0;"/><!--MD5=[65fb6dfcb8cdc64005573c0365390b9f]
@startjson JSON-Diagramm Messdaten

{
    "2100": {
        "azimut": ["0,5,10,15,20,..."],
        "elevation": ["-10,-5,0,5,10,..."],
        "gain": ["1.4,3.2,-0.7,0.3,5.2,..."]
    },
    "2200": {
        "azimut": ["0,5,10,15,20,..."],
        "elevation": ["-10,-5,0,5,10,..."],
        "gain": ["3.5,1.9,0.2,-3.6,1.8,..."]
    },
    "...": {
        "azimut": [],
        "elevation": [],
        "gain": []
    }
}

@endjson

PlantUML version 1.2022.7(Mon Aug 22 19:01:30 CEST 2022)
(GPL source distribution)
Java Runtime: OpenJDK Runtime Environment
JVM: OpenJDK 64-Bit Server VM
Default Encoding: UTF-8
Language: de
Country: DE
--></g></svg>