<?xml version="1.0" encoding="UTF-8" standalone="no"?><svg xmlns="http://www.w3.org/2000/svg" xmlns:xlink="http://www.w3.org/1999/xlink" contentStyleType="text/css" height="299px" preserveAspectRatio="none" style="width:453px;height:299px;background:#FFFFFF;" version="1.1" viewBox="0 0 453 299" width="453px" zoomAndPan="magnify"><defs/><g><!--MD5=[16fab723be418f7eaf2ea4bd895a8e51]
entity C--><g id="elem_C"><rect fill="#F1F1F1" height="46.2969" rx="2.5" ry="2.5" style="stroke:#181818;stroke-width:0.5;" width="50" x="372" y="141.5"/><rect fill="#F1F1F1" height="10" style="stroke:#181818;stroke-width:0.5;" width="15" x="402" y="146.5"/><rect fill="#F1F1F1" height="2" style="stroke:#181818;stroke-width:0.5;" width="4" x="400" y="148.5"/><rect fill="#F1F1F1" height="2" style="stroke:#181818;stroke-width:0.5;" width="4" x="400" y="152.5"/><text fill="#000000" font-family="sans-serif" font-size="14" lengthAdjust="spacing" textLength="10" x="387" y="174.4951">C</text></g><!--MD5=[972dfe21fb2df9d6c219ecc220e9e26e]
entity HTML--><g id="elem_HTML"><rect fill="#F1F1F1" height="46.2969" rx="2.5" ry="2.5" style="stroke:#181818;stroke-width:0.5;" width="136" x="7" y="141.5"/><rect fill="#F1F1F1" height="10" style="stroke:#181818;stroke-width:0.5;" width="15" x="123" y="146.5"/><rect fill="#F1F1F1" height="2" style="stroke:#181818;stroke-width:0.5;" width="4" x="121" y="148.5"/><rect fill="#F1F1F1" height="2" style="stroke:#181818;stroke-width:0.5;" width="4" x="121" y="152.5"/><text fill="#000000" font-family="sans-serif" font-size="14" lengthAdjust="spacing" textLength="96" x="22" y="174.4951">User Interface</text></g><!--MD5=[ad41aca18c70598adf1be20eed337942]
entity JS--><g id="elem_JS"><rect fill="#F1F1F1" height="46.2969" rx="2.5" ry="2.5" style="stroke:#181818;stroke-width:0.5;" width="105" x="178.5" y="141.5"/><rect fill="#F1F1F1" height="10" style="stroke:#181818;stroke-width:0.5;" width="15" x="263.5" y="146.5"/><rect fill="#F1F1F1" height="2" style="stroke:#181818;stroke-width:0.5;" width="4" x="261.5" y="148.5"/><rect fill="#F1F1F1" height="2" style="stroke:#181818;stroke-width:0.5;" width="4" x="261.5" y="152.5"/><text fill="#000000" font-family="sans-serif" font-size="14" lengthAdjust="spacing" textLength="65" x="193.5" y="174.4951">JavaScript</text></g><!--MD5=[2024fa4022dad57fd906e68765d3474e]
entity SK--><g id="elem_SK"><rect fill="#F1F1F1" height="46.2969" rx="2.5" ry="2.5" style="stroke:#181818;stroke-width:0.5;" width="76" x="359" y="20.5"/><rect fill="#F1F1F1" height="10" style="stroke:#181818;stroke-width:0.5;" width="15" x="415" y="25.5"/><rect fill="#F1F1F1" height="2" style="stroke:#181818;stroke-width:0.5;" width="4" x="413" y="27.5"/><rect fill="#F1F1F1" height="2" style="stroke:#181818;stroke-width:0.5;" width="4" x="413" y="31.5"/><text fill="#000000" font-family="sans-serif" font-size="14" lengthAdjust="spacing" textLength="36" x="374" y="53.4951">Head</text></g><!--MD5=[46a29077b4f233e86139fed432587ada]
entity ME--><g id="elem_ME"><rect fill="#F1F1F1" height="46.2969" rx="2.5" ry="2.5" style="stroke:#181818;stroke-width:0.5;" width="100" x="347" y="247.5"/><rect fill="#F1F1F1" height="10" style="stroke:#181818;stroke-width:0.5;" width="15" x="427" y="252.5"/><rect fill="#F1F1F1" height="2" style="stroke:#181818;stroke-width:0.5;" width="4" x="425" y="254.5"/><rect fill="#F1F1F1" height="2" style="stroke:#181818;stroke-width:0.5;" width="4" x="425" y="258.5"/><text fill="#000000" font-family="sans-serif" font-size="14" lengthAdjust="spacing" textLength="60" x="362" y="280.4951">Receiver</text></g><!--MD5=[48558302b29571c46195c4765052fa70]
entity WS--><g id="elem_WS"><ellipse cx="328" cy="164.5" fill="#F1F1F1" rx="8" ry="8" style="stroke:#181818;stroke-width:0.5;"/><text fill="#000000" font-family="sans-serif" font-size="14" lengthAdjust="spacing" textLength="79" x="288.5" y="194.4951">WebSocket</text></g><!--MD5=[8fc3522a43f8c7199df5e09e5bb0188e]
entity user--><g id="elem_user"><ellipse cx="75" cy="14" fill="#F1F1F1" rx="8" ry="8" style="stroke:#181818;stroke-width:0.5;"/><path d="M75,22 L75,49 M62,30 L88,30 M75,49 L62,64 M75,49 L88,64 " fill="none" style="stroke:#181818;stroke-width:0.5;"/><text fill="#000000" font-family="sans-serif" font-size="14" lengthAdjust="spacing" textLength="32" x="59" y="78.4951">User</text></g><!--MD5=[81a6faa4fc1bbbe7746fc08ef75d2d74]
link HTML to JS--><g id="link_HTML_JS"><path d="M148.44,164.5 C156.66,164.5 164.88,164.5 173.1,164.5 " fill="none" id="HTML-JS" style="stroke:#181818;stroke-width:1.0;"/><polygon fill="#181818" points="178.21,164.5,169.21,160.5,173.21,164.5,169.21,168.5,178.21,164.5" style="stroke:#181818;stroke-width:1.0;"/><polygon fill="#181818" points="143.25,164.5,152.25,168.5,148.25,164.5,152.25,160.5,143.25,164.5" style="stroke:#181818;stroke-width:1.0;"/></g><!--MD5=[81f38f67074b04cd8a5f945295420336]
link JS to WS--><g id="link_JS_WS"><path d="M283.67,164.5 C295.44,164.5 307.22,164.5 319,164.5 " fill="none" id="JS-WS" style="stroke:#181818;stroke-width:1.0;"/></g><!--MD5=[ee6be851e40a49b5d2d29b3ed7668ae5]
link WS to C--><g id="link_WS_C"><path d="M337.16,164.5 C348.69,164.5 360.23,164.5 371.76,164.5 " fill="none" id="WS-C" style="stroke:#181818;stroke-width:1.0;"/></g><!--MD5=[57b39e2d180a73e427b2fc4b8119ad82]
link user to HTML--><g id="link_user_HTML"><path d="M75,81.5 C75,99.15 75,119.91 75,136.12 " fill="none" id="user-to-HTML" style="stroke:#181818;stroke-width:1.0;"/><polygon fill="#181818" points="75,141.43,79,132.43,75,136.43,71,132.43,75,141.43" style="stroke:#181818;stroke-width:1.0;"/></g><!--MD5=[ed950b5e6ab09cb3eaaefd83e2978da6]
link C to ME--><g id="link_C_ME"><path d="M397,192.69 C397,208.03 397,227.12 397,242.44 " fill="none" id="C-ME" style="stroke:#181818;stroke-width:1.0;"/><polygon fill="#181818" points="397,247.48,401,238.48,397,242.48,393,238.48,397,247.48" style="stroke:#181818;stroke-width:1.0;"/><polygon fill="#181818" points="397,187.56,393,196.56,397,192.56,401,196.56,397,187.56" style="stroke:#181818;stroke-width:1.0;"/></g><!--MD5=[687e9bed9727fd94756ece917cc52891]
link SK to C--><g id="link_SK_C"><path d="M397,71.77 C397,90.96 397,116.57 397,135.85 " fill="none" id="SK-C" style="stroke:#181818;stroke-width:1.0;"/><polygon fill="#181818" points="397,141.11,401,132.11,397,136.11,393,132.11,397,141.11" style="stroke:#181818;stroke-width:1.0;"/><polygon fill="#181818" points="397,66.6,393,75.6,397,71.6,401,75.6,397,66.6" style="stroke:#181818;stroke-width:1.0;"/></g><!--MD5=[f4956a2b166bb4c7f0e1ecfaa30d9de1]
@startuml Komponentendiagramm

[C] as C
[User Interface] as HTML
[JavaScript] as JS
[Head] as SK
[Receiver] as ME
interface "WebSocket" as WS
actor "User" as user

HTML <-> JS
JS - WS
WS - C
user -down-> HTML
C <-down-> ME
C <-up-> SK


@enduml

PlantUML version 1.2022.7(Mon Aug 22 19:01:30 CEST 2022)
(GPL source distribution)
Java Runtime: OpenJDK Runtime Environment
JVM: OpenJDK 64-Bit Server VM
Default Encoding: UTF-8
Language: de
Country: DE
--></g></svg>