<?xml version="1.0" encoding="UTF-8" standalone="no"?><svg xmlns="http://www.w3.org/2000/svg" xmlns:xlink="http://www.w3.org/1999/xlink" contentStyleType="text/css" height="299px" preserveAspectRatio="none" style="width:496px;height:299px;background:#FFFFFF;" version="1.1" viewBox="0 0 496 299" width="496px" zoomAndPan="magnify"><defs/><g><!--MD5=[16fab723be418f7eaf2ea4bd895a8e51]
entity C--><g id="elem_C"><rect fill="#F1F1F1" height="46.2969" rx="2.5" ry="2.5" style="stroke:#181818;stroke-width:0.5;" width="107" x="383" y="141.5"/><rect fill="#F1F1F1" height="10" style="stroke:#181818;stroke-width:0.5;" width="15" x="470" y="146.5"/><rect fill="#F1F1F1" height="2" style="stroke:#181818;stroke-width:0.5;" width="4" x="468" y="148.5"/><rect fill="#F1F1F1" height="2" style="stroke:#181818;stroke-width:0.5;" width="4" x="468" y="152.5"/><text fill="#000000" font-family="sans-serif" font-size="14" lengthAdjust="spacing" textLength="67" x="398" y="174.4951">antscan.c</text></g><!--MD5=[972dfe21fb2df9d6c219ecc220e9e26e]
entity HTML--><g id="elem_HTML"><rect fill="#F1F1F1" height="46.2969" rx="2.5" ry="2.5" style="stroke:#181818;stroke-width:0.5;" width="165" x="7" y="141.5"/><rect fill="#F1F1F1" height="10" style="stroke:#181818;stroke-width:0.5;" width="15" x="152" y="146.5"/><rect fill="#F1F1F1" height="2" style="stroke:#181818;stroke-width:0.5;" width="4" x="150" y="148.5"/><rect fill="#F1F1F1" height="2" style="stroke:#181818;stroke-width:0.5;" width="4" x="150" y="152.5"/><text fill="#000000" font-family="sans-serif" font-size="14" lengthAdjust="spacing" textLength="125" x="22" y="174.4951">userinterface.html</text></g><!--MD5=[ad41aca18c70598adf1be20eed337942]
entity JS--><g id="elem_JS"><rect fill="#F1F1F1" height="46.2969" rx="2.5" ry="2.5" style="stroke:#181818;stroke-width:0.5;" width="87" x="207" y="141.5"/><rect fill="#F1F1F1" height="10" style="stroke:#181818;stroke-width:0.5;" width="15" x="274" y="146.5"/><rect fill="#F1F1F1" height="2" style="stroke:#181818;stroke-width:0.5;" width="4" x="272" y="148.5"/><rect fill="#F1F1F1" height="2" style="stroke:#181818;stroke-width:0.5;" width="4" x="272" y="152.5"/><text fill="#000000" font-family="sans-serif" font-size="14" lengthAdjust="spacing" textLength="47" x="222" y="174.4951">logic.js</text></g><!--MD5=[2024fa4022dad57fd906e68765d3474e]
entity SK--><g id="elem_SK"><rect fill="#F1F1F1" height="46.2969" rx="2.5" ry="2.5" style="stroke:#181818;stroke-width:0.5;" width="76" x="398.5" y="20.5"/><rect fill="#F1F1F1" height="10" style="stroke:#181818;stroke-width:0.5;" width="15" x="454.5" y="25.5"/><rect fill="#F1F1F1" height="2" style="stroke:#181818;stroke-width:0.5;" width="4" x="452.5" y="27.5"/><rect fill="#F1F1F1" height="2" style="stroke:#181818;stroke-width:0.5;" width="4" x="452.5" y="31.5"/><text fill="#000000" font-family="sans-serif" font-size="14" lengthAdjust="spacing" textLength="36" x="413.5" y="53.4951">Head</text></g><!--MD5=[46a29077b4f233e86139fed432587ada]
entity ME--><g id="elem_ME"><rect fill="#F1F1F1" height="46.2969" rx="2.5" ry="2.5" style="stroke:#181818;stroke-width:0.5;" width="100" x="386.5" y="247.5"/><rect fill="#F1F1F1" height="10" style="stroke:#181818;stroke-width:0.5;" width="15" x="466.5" y="252.5"/><rect fill="#F1F1F1" height="2" style="stroke:#181818;stroke-width:0.5;" width="4" x="464.5" y="254.5"/><rect fill="#F1F1F1" height="2" style="stroke:#181818;stroke-width:0.5;" width="4" x="464.5" y="258.5"/><text fill="#000000" font-family="sans-serif" font-size="14" lengthAdjust="spacing" textLength="60" x="401.5" y="280.4951">Receiver</text></g><!--MD5=[48558302b29571c46195c4765052fa70]
entity WS--><g id="elem_WS"><ellipse cx="338.5" cy="164.5" fill="#F1F1F1" rx="8" ry="8" style="stroke:#181818;stroke-width:0.5;"/><text fill="#000000" font-family="sans-serif" font-size="14" lengthAdjust="spacing" textLength="79" x="299" y="194.4951">WebSocket</text></g><!--MD5=[8fc3522a43f8c7199df5e09e5bb0188e]
entity user--><g id="elem_user"><ellipse cx="89.5" cy="14" fill="#F1F1F1" rx="8" ry="8" style="stroke:#181818;stroke-width:0.5;"/><path d="M89.5,22 L89.5,49 M76.5,30 L102.5,30 M89.5,49 L76.5,64 M89.5,49 L102.5,64 " fill="none" style="stroke:#181818;stroke-width:0.5;"/><text fill="#000000" font-family="sans-serif" font-size="14" lengthAdjust="spacing" textLength="32" x="73.5" y="78.4951">User</text></g><!--MD5=[81a6faa4fc1bbbe7746fc08ef75d2d74]
link HTML to JS--><g id="link_HTML_JS"><path d="M177.33,164.5 C185.46,164.5 193.58,164.5 201.7,164.5 " fill="none" id="HTML-JS" style="stroke:#181818;stroke-width:1.0;"/><polygon fill="#181818" points="206.76,164.5,197.76,160.5,201.76,164.5,197.76,168.5,206.76,164.5" style="stroke:#181818;stroke-width:1.0;"/><polygon fill="#181818" points="172.2,164.5,181.2,168.5,177.2,164.5,181.2,160.5,172.2,164.5" style="stroke:#181818;stroke-width:1.0;"/></g><!--MD5=[81f38f67074b04cd8a5f945295420336]
link JS to WS--><g id="link_JS_WS"><path d="M294.16,164.5 C305.94,164.5 317.71,164.5 329.49,164.5 " fill="none" id="JS-WS" style="stroke:#181818;stroke-width:1.0;"/></g><!--MD5=[ee6be851e40a49b5d2d29b3ed7668ae5]
link WS to C--><g id="link_WS_C"><path d="M347.69,164.5 C359.37,164.5 371.05,164.5 382.73,164.5 " fill="none" id="WS-C" style="stroke:#181818;stroke-width:1.0;"/></g><!--MD5=[57b39e2d180a73e427b2fc4b8119ad82]
link user to HTML--><g id="link_user_HTML"><path d="M89.5,81.5 C89.5,99.15 89.5,119.91 89.5,136.12 " fill="none" id="user-to-HTML" style="stroke:#181818;stroke-width:1.0;"/><polygon fill="#181818" points="89.5,141.43,93.5,132.43,89.5,136.43,85.5,132.43,89.5,141.43" style="stroke:#181818;stroke-width:1.0;"/></g><!--MD5=[ed950b5e6ab09cb3eaaefd83e2978da6]
link C to ME--><g id="link_C_ME"><path d="M436.5,192.69 C436.5,208.03 436.5,227.12 436.5,242.44 " fill="none" id="C-ME" style="stroke:#181818;stroke-width:1.0;"/><polygon fill="#181818" points="436.5,247.48,440.5,238.48,436.5,242.48,432.5,238.48,436.5,247.48" style="stroke:#181818;stroke-width:1.0;"/><polygon fill="#181818" points="436.5,187.56,432.5,196.56,436.5,192.56,440.5,196.56,436.5,187.56" style="stroke:#181818;stroke-width:1.0;"/></g><!--MD5=[687e9bed9727fd94756ece917cc52891]
link SK to C--><g id="link_SK_C"><path d="M436.5,71.77 C436.5,90.96 436.5,116.57 436.5,135.85 " fill="none" id="SK-C" style="stroke:#181818;stroke-width:1.0;"/><polygon fill="#181818" points="436.5,141.11,440.5,132.11,436.5,136.11,432.5,132.11,436.5,141.11" style="stroke:#181818;stroke-width:1.0;"/><polygon fill="#181818" points="436.5,66.6,432.5,75.6,436.5,71.6,440.5,75.6,436.5,66.6" style="stroke:#181818;stroke-width:1.0;"/></g><!--MD5=[142b2105db196e581c4ba5a82c1f2ec5]
@startuml Komponentendiagramm

[antscan.c] as C
[userinterface.html] as HTML
[logic.js] as JS
[Head] as SK
[Receiver] as ME
interface "WebSocket" as WS
actor "User" as user

HTML <-> JS
JS - WS
WS - C
user -down-> HTML
C <-down-> ME
C <-up-> SK


@enduml

PlantUML version 1.2022.7(Mon Aug 22 19:01:30 CEST 2022)
(GPL source distribution)
Java Runtime: OpenJDK Runtime Environment
JVM: OpenJDK 64-Bit Server VM
Default Encoding: UTF-8
Language: de
Country: DE
--></g></svg>