<?xml version="1.0" encoding="UTF-8" standalone="no"?><svg xmlns="http://www.w3.org/2000/svg" xmlns:xlink="http://www.w3.org/1999/xlink" contentStyleType="text/css" height="346px" preserveAspectRatio="none" style="width:270px;height:346px;background:#FFFFFF;" version="1.1" viewBox="0 0 270 346" width="270px" zoomAndPan="magnify"><defs/><g><rect fill="#F1F1F1" height="60.8906" rx="5" ry="5" style="stroke:#F1F1F1;stroke-width:1.5;" width="72" x="10" y="143.5"/><text fill="#000000" font-family="sans-serif" font-size="14" font-weight="bold" lengthAdjust="spacing" textLength="40" x="15" y="158.4951">2100</text><text fill="#000000" font-family="sans-serif" font-size="14" lengthAdjust="spacing" textLength="12" x="65" y="158.4951">   </text><line style="stroke:#000000;stroke-width:1.0;" x1="60" x2="60" y1="143.5" y2="163.7969"/><line style="stroke:#000000;stroke-width:1.0;" x1="10" x2="82" y1="163.7969" y2="163.7969"/><text fill="#000000" font-family="sans-serif" font-size="14" font-weight="bold" lengthAdjust="spacing" textLength="40" x="15" y="178.792">2200</text><text fill="#000000" font-family="sans-serif" font-size="14" lengthAdjust="spacing" textLength="12" x="65" y="178.792">   </text><line style="stroke:#000000;stroke-width:1.0;" x1="60" x2="60" y1="163.7969" y2="184.0938"/><line style="stroke:#000000;stroke-width:1.0;" x1="10" x2="82" y1="184.0938" y2="184.0938"/><text fill="#000000" font-family="sans-serif" font-size="14" font-weight="bold" lengthAdjust="spacing" textLength="15" x="15" y="199.0889">...</text><text fill="#000000" font-family="sans-serif" font-size="14" lengthAdjust="spacing" textLength="12" x="65" y="199.0889">   </text><line style="stroke:#000000;stroke-width:1.0;" x1="60" x2="60" y1="184.0938" y2="204.3906"/><rect fill="none" height="60.8906" rx="5" ry="5" style="stroke:#000000;stroke-width:1.5;" width="72" x="10" y="143.5"/><rect fill="#F1F1F1" height="60.8906" rx="5" ry="5" style="stroke:#F1F1F1;stroke-width:1.5;" width="41" x="119" y="37.5"/><text fill="#000000" font-family="sans-serif" font-size="14" font-weight="bold" lengthAdjust="spacing" textLength="9" x="124" y="52.4951">x</text><text fill="#000000" font-family="sans-serif" font-size="14" lengthAdjust="spacing" textLength="12" x="143" y="52.4951">   </text><line style="stroke:#000000;stroke-width:1.0;" x1="138" x2="138" y1="37.5" y2="57.7969"/><line style="stroke:#000000;stroke-width:1.0;" x1="119" x2="160" y1="57.7969" y2="57.7969"/><text fill="#000000" font-family="sans-serif" font-size="14" font-weight="bold" lengthAdjust="spacing" textLength="9" x="124" y="72.792">y</text><text fill="#000000" font-family="sans-serif" font-size="14" lengthAdjust="spacing" textLength="12" x="143" y="72.792">   </text><line style="stroke:#000000;stroke-width:1.0;" x1="138" x2="138" y1="57.7969" y2="78.0938"/><line style="stroke:#000000;stroke-width:1.0;" x1="119" x2="160" y1="78.0938" y2="78.0938"/><text fill="#000000" font-family="sans-serif" font-size="14" font-weight="bold" lengthAdjust="spacing" textLength="9" x="124" y="93.0889">z</text><text fill="#000000" font-family="sans-serif" font-size="14" lengthAdjust="spacing" textLength="12" x="143" y="93.0889">   </text><line style="stroke:#000000;stroke-width:1.0;" x1="138" x2="138" y1="78.0938" y2="98.3906"/><rect fill="none" height="60.8906" rx="5" ry="5" style="stroke:#000000;stroke-width:1.5;" width="41" x="119" y="37.5"/><rect fill="#F1F1F1" height="20.2969" rx="5" ry="5" style="stroke:#F1F1F1;stroke-width:1.5;" width="61" x="197" y="10"/><text fill="#000000" font-family="sans-serif" font-size="14" lengthAdjust="spacing" textLength="51" x="202" y="24.9951">4,7,5,...</text><rect fill="none" height="20.2969" rx="5" ry="5" style="stroke:#000000;stroke-width:1.5;" width="61" x="197" y="10"/><rect fill="#F1F1F1" height="20.2969" rx="5" ry="5" style="stroke:#F1F1F1;stroke-width:1.5;" width="61" x="197" y="48"/><text fill="#000000" font-family="sans-serif" font-size="14" lengthAdjust="spacing" textLength="51" x="202" y="62.9951">8,5,1,...</text><rect fill="none" height="20.2969" rx="5" ry="5" style="stroke:#000000;stroke-width:1.5;" width="61" x="197" y="48"/><rect fill="#F1F1F1" height="20.2969" rx="5" ry="5" style="stroke:#F1F1F1;stroke-width:1.5;" width="61" x="197" y="86"/><text fill="#000000" font-family="sans-serif" font-size="14" lengthAdjust="spacing" textLength="51" x="202" y="100.9951">7,0,4,...</text><rect fill="none" height="20.2969" rx="5" ry="5" style="stroke:#000000;stroke-width:1.5;" width="61" x="197" y="86"/><rect fill="#F1F1F1" height="60.8906" rx="5" ry="5" style="stroke:#F1F1F1;stroke-width:1.5;" width="41" x="119" y="142.5"/><text fill="#000000" font-family="sans-serif" font-size="14" font-weight="bold" lengthAdjust="spacing" textLength="9" x="124" y="157.4951">x</text><text fill="#000000" font-family="sans-serif" font-size="14" lengthAdjust="spacing" textLength="12" x="143" y="157.4951">   </text><line style="stroke:#000000;stroke-width:1.0;" x1="138" x2="138" y1="142.5" y2="162.7969"/><line style="stroke:#000000;stroke-width:1.0;" x1="119" x2="160" y1="162.7969" y2="162.7969"/><text fill="#000000" font-family="sans-serif" font-size="14" font-weight="bold" lengthAdjust="spacing" textLength="9" x="124" y="177.792">y</text><text fill="#000000" font-family="sans-serif" font-size="14" lengthAdjust="spacing" textLength="12" x="143" y="177.792">   </text><line style="stroke:#000000;stroke-width:1.0;" x1="138" x2="138" y1="162.7969" y2="183.0938"/><line style="stroke:#000000;stroke-width:1.0;" x1="119" x2="160" y1="183.0938" y2="183.0938"/><text fill="#000000" font-family="sans-serif" font-size="14" font-weight="bold" lengthAdjust="spacing" textLength="9" x="124" y="198.0889">z</text><text fill="#000000" font-family="sans-serif" font-size="14" lengthAdjust="spacing" textLength="12" x="143" y="198.0889">   </text><line style="stroke:#000000;stroke-width:1.0;" x1="138" x2="138" y1="183.0938" y2="203.3906"/><rect fill="none" height="60.8906" rx="5" ry="5" style="stroke:#000000;stroke-width:1.5;" width="41" x="119" y="142.5"/><rect fill="#F1F1F1" height="20.2969" rx="5" ry="5" style="stroke:#F1F1F1;stroke-width:1.5;" width="61" x="197" y="124"/><text fill="#000000" font-family="sans-serif" font-size="14" lengthAdjust="spacing" textLength="51" x="202" y="138.9951">3,6,2,...</text><rect fill="none" height="20.2969" rx="5" ry="5" style="stroke:#000000;stroke-width:1.5;" width="61" x="197" y="124"/><rect fill="#F1F1F1" height="20.2969" rx="5" ry="5" style="stroke:#F1F1F1;stroke-width:1.5;" width="61" x="197" y="162"/><text fill="#000000" font-family="sans-serif" font-size="14" lengthAdjust="spacing" textLength="51" x="202" y="176.9951">7,2,8,...</text><rect fill="none" height="20.2969" rx="5" ry="5" style="stroke:#000000;stroke-width:1.5;" width="61" x="197" y="162"/><rect fill="#F1F1F1" height="20.2969" rx="5" ry="5" style="stroke:#F1F1F1;stroke-width:1.5;" width="61" x="197" y="200"/><text fill="#000000" font-family="sans-serif" font-size="14" lengthAdjust="spacing" textLength="51" x="202" y="214.9951">4,2,5,...</text><rect fill="none" height="20.2969" rx="5" ry="5" style="stroke:#000000;stroke-width:1.5;" width="61" x="197" y="200"/><rect fill="#F1F1F1" height="60.8906" rx="5" ry="5" style="stroke:#F1F1F1;stroke-width:1.5;" width="41" x="119" y="247.5"/><text fill="#000000" font-family="sans-serif" font-size="14" font-weight="bold" lengthAdjust="spacing" textLength="9" x="124" y="262.4951">x</text><text fill="#000000" font-family="sans-serif" font-size="14" lengthAdjust="spacing" textLength="12" x="143" y="262.4951">   </text><line style="stroke:#000000;stroke-width:1.0;" x1="138" x2="138" y1="247.5" y2="267.7969"/><line style="stroke:#000000;stroke-width:1.0;" x1="119" x2="160" y1="267.7969" y2="267.7969"/><text fill="#000000" font-family="sans-serif" font-size="14" font-weight="bold" lengthAdjust="spacing" textLength="9" x="124" y="282.792">y</text><text fill="#000000" font-family="sans-serif" font-size="14" lengthAdjust="spacing" textLength="12" x="143" y="282.792">   </text><line style="stroke:#000000;stroke-width:1.0;" x1="138" x2="138" y1="267.7969" y2="288.0938"/><line style="stroke:#000000;stroke-width:1.0;" x1="119" x2="160" y1="288.0938" y2="288.0938"/><text fill="#000000" font-family="sans-serif" font-size="14" font-weight="bold" lengthAdjust="spacing" textLength="9" x="124" y="303.0889">z</text><text fill="#000000" font-family="sans-serif" font-size="14" lengthAdjust="spacing" textLength="12" x="143" y="303.0889">   </text><line style="stroke:#000000;stroke-width:1.0;" x1="138" x2="138" y1="288.0938" y2="308.3906"/><rect fill="none" height="60.8906" rx="5" ry="5" style="stroke:#000000;stroke-width:1.5;" width="41" x="119" y="247.5"/><rect fill="#F1F1F1" height="20.2969" rx="5" ry="5" style="stroke:#F1F1F1;stroke-width:1.5;" width="14" x="215.5" y="238"/><text fill="#000000" font-family="sans-serif" font-size="14" lengthAdjust="spacing" textLength="4" x="220.5" y="252.9951"> </text><rect fill="none" height="20.2969" rx="5" ry="5" style="stroke:#000000;stroke-width:1.5;" width="14" x="215.5" y="238"/><rect fill="#F1F1F1" height="20.2969" rx="5" ry="5" style="stroke:#F1F1F1;stroke-width:1.5;" width="14" x="215.5" y="276"/><text fill="#000000" font-family="sans-serif" font-size="14" lengthAdjust="spacing" textLength="4" x="220.5" y="290.9951"> </text><rect fill="none" height="20.2969" rx="5" ry="5" style="stroke:#000000;stroke-width:1.5;" width="14" x="215.5" y="276"/><rect fill="#F1F1F1" height="20.2969" rx="5" ry="5" style="stroke:#F1F1F1;stroke-width:1.5;" width="14" x="215.5" y="314"/><text fill="#000000" font-family="sans-serif" font-size="14" lengthAdjust="spacing" textLength="4" x="220.5" y="328.9951"> </text><rect fill="none" height="20.2969" rx="5" ry="5" style="stroke:#000000;stroke-width:1.5;" width="14" x="215.5" y="314"/><path d="M148,47 L161,47 C176.5234,47 192.674,40.5224 205.1132,33.9128 " fill="none" style="stroke:#000000;stroke-width:1.0;stroke-dasharray:3.0,3.0;"/><path d="M206.6567,36.6577 L207.1718,32.7551 L203.5696,31.1678 L211.9754,30.0538 L206.6567,36.6577 " fill="#000000" style="stroke:#000000;stroke-width:1.0;"/><ellipse cx="148" cy="47" fill="#000000" rx="3" ry="3" style="stroke:#000000;stroke-width:1.0;"/><path d="M148,67 L161,67 C170.3057,67 180.2823,66.1108 189.5887,64.8913 " fill="none" style="stroke:#000000;stroke-width:1.0;stroke-dasharray:3.0,3.0;"/><path d="M190.0245,67.9434 L191.8777,64.5644 L189.1528,61.8392 L197.2189,63.8016 L190.0245,67.9434 " fill="#000000" style="stroke:#000000;stroke-width:1.0;"/><ellipse cx="148" cy="67" fill="#000000" rx="3" ry="3" style="stroke:#000000;stroke-width:1.0;"/><path d="M148,88 L161,88 C170.2879,88 180.2579,88.7904 189.5635,89.8744 " fill="none" style="stroke:#000000;stroke-width:1.0;stroke-dasharray:3.0,3.0;"/><path d="M189.176,92.9267 L191.8528,90.165 L189.9509,86.822 L197.1944,90.843 L189.176,92.9267 " fill="#000000" style="stroke:#000000;stroke-width:1.0;"/><ellipse cx="148" cy="88" fill="#000000" rx="3" ry="3" style="stroke:#000000;stroke-width:1.0;"/><path d="M71.5,155 L71.5,142 C71.5,116.4462 93.7424,95.8457 112.6913,82.9322 " fill="none" style="stroke:#000000;stroke-width:1.0;stroke-dasharray:3.0,3.0;"/><path d="M114.4532,85.6462 L114.7268,81.6108 L110.9294,80.2183 L119.4762,78.5275 L114.4532,85.6462 " fill="#000000" style="stroke:#000000;stroke-width:1.0;"/><ellipse cx="71.5" cy="155" fill="#000000" rx="3" ry="3" style="stroke:#000000;stroke-width:1.0;"/><path d="M148,152 L161,152 C172.3869,152 184.5019,149.4753 195.2024,146.317 " fill="none" style="stroke:#000000;stroke-width:1.0;stroke-dasharray:3.0,3.0;"/><path d="M196.1082,149.1794 L197.3491,145.6377 L194.2966,143.4547 L202.3582,144.0525 L196.1082,149.1794 " fill="#000000" style="stroke:#000000;stroke-width:1.0;"/><ellipse cx="148" cy="152" fill="#000000" rx="3" ry="3" style="stroke:#000000;stroke-width:1.0;"/><path d="M148,172 L161,172 C170.3099,172 180.3585,172 189.7391,172 " fill="none" style="stroke:#000000;stroke-width:1.0;stroke-dasharray:3.0,3.0;"/><path d="M189.7391,175.0767 L192.0466,172 L189.7391,168.9233 L197.4308,172 L189.7391,175.0767 " fill="#000000" style="stroke:#000000;stroke-width:1.0;"/><ellipse cx="148" cy="172" fill="#000000" rx="3" ry="3" style="stroke:#000000;stroke-width:1.0;"/><path d="M148,193 L161,193 C171.6639,193 182.9993,195.107 193.2118,197.8374 " fill="none" style="stroke:#000000;stroke-width:1.0;stroke-dasharray:3.0,3.0;"/><path d="M192.381,200.7223 L195.3755,198.4605 L194.0427,194.9525 L200.424,199.9146 L192.381,200.7223 " fill="#000000" style="stroke:#000000;stroke-width:1.0;"/><ellipse cx="148" cy="193" fill="#000000" rx="3" ry="3" style="stroke:#000000;stroke-width:1.0;"/><path d="M70,173 L83,173 C92.3242,173 102.5217,173 111.6295,173 " fill="none" style="stroke:#000000;stroke-width:1.0;stroke-dasharray:3.0,3.0;"/><path d="M111.6295,176.0696 L113.9317,173 L111.6295,169.9304 L119.3035,173 L111.6295,176.0696 " fill="#000000" style="stroke:#000000;stroke-width:1.0;"/><ellipse cx="70" cy="173" fill="#000000" rx="3" ry="3" style="stroke:#000000;stroke-width:1.0;"/><path d="M148,257 L161,257 C177.0889,257 195.1834,254.3419 208.3517,251.9148 " fill="none" style="stroke:#000000;stroke-width:1.0;stroke-dasharray:3.0,3.0;"/><path d="M208.9339,254.915 L210.6019,251.4782 L207.7695,248.9146 L215.8523,250.4593 L208.9339,254.915 " fill="#000000" style="stroke:#000000;stroke-width:1.0;"/><ellipse cx="148" cy="257" fill="#000000" rx="3" ry="3" style="stroke:#000000;stroke-width:1.0;"/><path d="M148,277 L161,277 C177.0889,277 195.1834,279.6581 208.3517,282.0852 " fill="none" style="stroke:#000000;stroke-width:1.0;stroke-dasharray:3.0,3.0;"/><path d="M207.7695,285.0854 L210.6019,282.5218 L208.9339,279.085 L215.8523,283.5407 L207.7695,285.0854 " fill="#000000" style="stroke:#000000;stroke-width:1.0;"/><ellipse cx="148" cy="277" fill="#000000" rx="3" ry="3" style="stroke:#000000;stroke-width:1.0;"/><path d="M148,298 L161,298 C178.2492,298 196.3801,305.7828 209.2645,312.8322 " fill="none" style="stroke:#000000;stroke-width:1.0;stroke-dasharray:3.0,3.0;"/><path d="M207.7498,315.4639 L211.2383,313.9682 L210.7792,310.2005 L215.8438,316.619 L207.7498,315.4639 " fill="#000000" style="stroke:#000000;stroke-width:1.0;"/><ellipse cx="148" cy="298" fill="#000000" rx="3" ry="3" style="stroke:#000000;stroke-width:1.0;"/><path d="M71.5,193 L71.5,206 C71.5,231.1792 93.7424,251.1761 112.6913,263.6434 " fill="none" style="stroke:#000000;stroke-width:1.0;stroke-dasharray:3.0,3.0;"/><path d="M110.992,266.3573 L114.7268,264.9178 L114.3906,260.9294 L119.4762,267.8916 L110.992,266.3573 " fill="#000000" style="stroke:#000000;stroke-width:1.0;"/><ellipse cx="71.5" cy="193" fill="#000000" rx="3" ry="3" style="stroke:#000000;stroke-width:1.0;"/><!--MD5=[336301bac4213f93ccc00df77c981e8c]
@startjson JSON-Diagramm 3D

{
    "2100": {
        "x": ["4,7,5,..."],
        "y": ["8,5,1,..."],
        "z": ["7,0,4,..."]
    },
    "2200": {
        "x": ["3,6,2,..."],
        "y": ["7,2,8,..."],
        "z": ["4,2,5,..."]
    },
    "...": {
        "x": [""],
        "y": [""],
        "z": [""]
    }
} 

@endjson

PlantUML version 1.2022.7(Mon Aug 22 19:01:30 CEST 2022)
(GPL source distribution)
Java Runtime: OpenJDK Runtime Environment
JVM: OpenJDK 64-Bit Server VM
Default Encoding: UTF-8
Language: de
Country: DE
--></g></svg>