<?xml version="1.0" encoding="UTF-8" standalone="no"?><svg xmlns="http://www.w3.org/2000/svg" xmlns:xlink="http://www.w3.org/1999/xlink" contentStyleType="text/css" height="428px" preserveAspectRatio="none" style="width:199px;height:428px;background:#FFFFFF;" version="1.1" viewBox="0 0 199 428" width="199px" zoomAndPan="magnify"><defs/><g><ellipse cx="83.5" cy="20" fill="#222222" rx="10" ry="10" style="stroke:#222222;stroke-width:1.0;"/><rect fill="#F1F1F1" height="33.9688" rx="12.5" ry="12.5" style="stroke:#181818;stroke-width:0.5;" width="122" x="22.5" y="94"/><text fill="#000000" font-family="sans-serif" font-size="12" lengthAdjust="spacing" textLength="102" x="32.5" y="115.1387">set pan position</text><rect fill="#F1F1F1" height="33.9688" rx="12.5" ry="12.5" style="stroke:#181818;stroke-width:0.5;" width="114" x="26.5" y="191.9688"/><text fill="#000000" font-family="sans-serif" font-size="12" lengthAdjust="spacing" textLength="94" x="36.5" y="213.1074">set tilt position</text><rect fill="#008000" height="33.9688" rx="12.5" ry="12.5" style="stroke:#181818;stroke-width:0.5;" width="75" x="46" y="253.4375"/><text fill="#000000" font-family="sans-serif" font-size="12" lengthAdjust="spacing" textLength="55" x="56" y="274.5762">measure</text><polygon fill="#F1F1F1" points="83.5,147.9688,95.5,159.9688,83.5,171.9688,71.5,159.9688,83.5,147.9688" style="stroke:#181818;stroke-width:0.5;"/><polygon fill="#F1F1F1" points="35.5,307.4063,131.5,307.4063,143.5,319.4063,131.5,331.4063,35.5,331.4063,23.5,319.4063,35.5,307.4063" style="stroke:#181818;stroke-width:0.5;"/><text fill="#000000" font-family="sans-serif" font-size="11" lengthAdjust="spacing" textLength="96" x="35.5" y="323.2144">more tilt angles?</text><polygon fill="#F1F1F1" points="83.5,50,95.5,62,83.5,74,71.5,62,83.5,50" style="stroke:#181818;stroke-width:0.5;"/><polygon fill="#F1F1F1" points="32,351.4063,135,351.4063,147,363.4063,135,375.4063,32,375.4063,20,363.4063,32,351.4063" style="stroke:#181818;stroke-width:0.5;"/><text fill="#000000" font-family="sans-serif" font-size="11" lengthAdjust="spacing" textLength="103" x="32" y="367.2144">more pan angles?</text><ellipse cx="83.5" cy="406.4063" fill="none" rx="11" ry="11" style="stroke:#222222;stroke-width:1.0;"/><ellipse cx="83.5" cy="406.4063" fill="#222222" rx="6" ry="6" style="stroke:#111111;stroke-width:1.0;"/><line style="stroke:#181818;stroke-width:1.0;" x1="83.5" x2="83.5" y1="225.9375" y2="253.4375"/><polygon fill="#181818" points="79.5,243.4375,83.5,253.4375,87.5,243.4375,83.5,247.4375" style="stroke:#181818;stroke-width:1.0;"/><line style="stroke:#181818;stroke-width:1.0;" x1="83.5" x2="83.5" y1="171.9688" y2="191.9688"/><polygon fill="#181818" points="79.5,181.9688,83.5,191.9688,87.5,181.9688,83.5,185.9688" style="stroke:#181818;stroke-width:1.0;"/><line style="stroke:#181818;stroke-width:1.0;" x1="143.5" x2="155.5" y1="319.4063" y2="319.4063"/><polygon fill="#181818" points="151.5,245.9375,155.5,235.9375,159.5,245.9375,155.5,241.9375" style="stroke:#181818;stroke-width:1.0;"/><line style="stroke:#181818;stroke-width:1.0;" x1="155.5" x2="155.5" y1="159.9688" y2="319.4063"/><line style="stroke:#181818;stroke-width:1.0;" x1="155.5" x2="95.5" y1="159.9688" y2="159.9688"/><polygon fill="#181818" points="105.5,155.9688,95.5,159.9688,105.5,163.9688,101.5,159.9688" style="stroke:#181818;stroke-width:1.0;"/><line style="stroke:#181818;stroke-width:1.0;" x1="83.5" x2="83.5" y1="287.4063" y2="307.4063"/><polygon fill="#181818" points="79.5,297.4063,83.5,307.4063,87.5,297.4063,83.5,301.4063" style="stroke:#181818;stroke-width:1.0;"/><line style="stroke:#181818;stroke-width:1.0;" x1="83.5" x2="83.5" y1="127.9688" y2="147.9688"/><polygon fill="#181818" points="79.5,137.9688,83.5,147.9688,87.5,137.9688,83.5,141.9688" style="stroke:#181818;stroke-width:1.0;"/><line style="stroke:#181818;stroke-width:1.0;" x1="83.5" x2="83.5" y1="74" y2="94"/><polygon fill="#181818" points="79.5,84,83.5,94,87.5,84,83.5,88" style="stroke:#181818;stroke-width:1.0;"/><line style="stroke:#181818;stroke-width:1.0;" x1="147" x2="173.5" y1="363.4063" y2="363.4063"/><polygon fill="#181818" points="169.5,218.9531,173.5,208.9531,177.5,218.9531,173.5,214.9531" style="stroke:#181818;stroke-width:1.0;"/><line style="stroke:#181818;stroke-width:1.0;" x1="173.5" x2="173.5" y1="62" y2="363.4063"/><line style="stroke:#181818;stroke-width:1.0;" x1="173.5" x2="95.5" y1="62" y2="62"/><polygon fill="#181818" points="105.5,58,95.5,62,105.5,66,101.5,62" style="stroke:#181818;stroke-width:1.0;"/><line style="stroke:#181818;stroke-width:1.0;" x1="83.5" x2="83.5" y1="331.4063" y2="351.4063"/><polygon fill="#181818" points="79.5,341.4063,83.5,351.4063,87.5,341.4063,83.5,345.4063" style="stroke:#181818;stroke-width:1.0;"/><line style="stroke:#181818;stroke-width:1.0;" x1="83.5" x2="83.5" y1="30" y2="50"/><polygon fill="#181818" points="79.5,40,83.5,50,87.5,40,83.5,44" style="stroke:#181818;stroke-width:1.0;"/><line style="stroke:#181818;stroke-width:1.0;" x1="83.5" x2="83.5" y1="375.4063" y2="395.4063"/><polygon fill="#181818" points="79.5,385.4063,83.5,395.4063,87.5,385.4063,83.5,389.4063" style="stroke:#181818;stroke-width:1.0;"/><!--MD5=[768f0e342e18e138925d4cfa812967b8]
@startuml Messschleife

start
repeat
:set pan position;
repeat
:set tilt position;
#Green:measure;
repeat while (more tilt angles?)
repeat while (more pan angles?)
stop

@enduml

PlantUML version 1.2022.7(Mon Aug 22 19:01:30 CEST 2022)
(GPL source distribution)
Java Runtime: OpenJDK Runtime Environment
JVM: OpenJDK 64-Bit Server VM
Default Encoding: UTF-8
Language: de
Country: DE
--></g></svg>